<?xml version="1.0" encoding="UTF-8" standalone="no"?><!-- Generator: Gravit.io --><svg xmlns="http://www.w3.org/2000/svg" xmlns:xlink="http://www.w3.org/1999/xlink" style="isolation:isolate" viewBox="0 0 1620 1080" width="1620pt" height="1080pt"><defs><clipPath id="_clipPath_Ty1azOlFrXMBXbarB8WzyKGNOOBJbe5q"><rect width="1620" height="1080"/></clipPath></defs><g clip-path="url(#_clipPath_Ty1azOlFrXMBXbarB8WzyKGNOOBJbe5q)"><rect width="1620" height="1080" style="fill:rgb(13,21,25)"/><g style="mix-blend-mode:lighten;"><rect x="0" y="0" width="1620" height="1080" transform="matrix(1,0,0,1,0,0)" fill="rgb(13,21,25)"/></g><g style="mix-blend-mode:lighten;"><rect x="0" y="0" width="1620" height="1080" transform="matrix(1,0,0,1,0,0)" fill="rgb(51,187,112)"/></g><g style="opacity:0.5;"><g opacity="0.15"><rect x="0" y="0" width="540" height="1080" transform="matrix(1,0,0,1,0,0)" fill="rgb(255,255,255)"/></g><g opacity="0.1"><rect x="540" y="0" width="540" height="1080" transform="matrix(1,0,0,1,0,0)" fill="rgb(255,255,255)"/></g><g opacity="0.15"><rect x="1080" y="0" width="540" height="1080" transform="matrix(1,0,0,1,0,0)" fill="rgb(255,255,255)"/></g><g opacity="0.2"><rect x="0" y="0" width="1620" height="360" transform="matrix(1,0,0,1,0,0)" fill="rgb(255,255,255)"/></g><g opacity="0.1"><rect x="0" y="360" width="1620" height="360" transform="matrix(1,0,0,1,0,0)" fill="rgb(255,255,255)"/></g><g opacity="0.2"><rect x="0" y="720" width="1620" height="360" transform="matrix(1,0,0,1,0,0)" fill="rgb(255,255,255)"/></g><g opacity="0.1"><rect x="101.25" y="135" width="1417.5" height="810" transform="matrix(1,0,0,1,0,0)" fill="rgb(255,255,255)"/></g></g><g><path d=" M 1229.742 929.103 L 1229.742 929.103 L 1229.742 929.103 Q 1229.742 925.025 1231.101 922.911 L 1231.101 922.911 L 1231.101 922.911 Q 1232.461 920.796 1237.444 920.796 L 1237.444 920.796 L 1237.444 920.796 Q 1236.991 922.911 1236.312 925.025 L 1236.312 925.025 L 1236.312 925.025 Q 1235.632 927.139 1235.104 928.952 L 1235.104 928.952 L 1235.104 928.952 Q 1234.575 930.764 1234.65 931.821 L 1234.65 931.821 L 1234.65 931.821 Q 1234.726 932.878 1235.783 932.576 L 1235.783 932.576 L 1235.783 932.576 Q 1240.616 935.748 1246.355 937.107 L 1246.355 937.107 L 1246.355 937.107 Q 1252.094 938.466 1257.682 938.466 L 1257.682 938.466 L 1257.682 938.466 Q 1266.14 938.315 1272.256 934.993 L 1272.256 934.993 L 1272.256 934.993 Q 1278.373 931.67 1282.375 926.384 L 1282.375 926.384 L 1282.375 926.384 Q 1286.377 921.098 1288.567 914.226 L 1288.567 914.226 L 1288.567 914.226 Q 1290.757 907.355 1291.286 900.03 L 1291.286 900.03 L 1291.286 900.03 Q 1291.814 892.705 1290.908 885.305 L 1290.908 885.305 L 1290.908 885.305 Q 1290.002 877.904 1288.039 871.712 L 1288.039 871.712 L 1288.039 871.712 Q 1285.471 874.582 1282.828 877.753 L 1282.828 877.753 L 1282.828 877.753 Q 1280.185 880.925 1277.165 883.417 L 1277.165 883.417 L 1277.165 883.417 Q 1274.144 885.909 1270.746 887.57 L 1270.746 887.57 L 1270.746 887.57 Q 1267.348 889.231 1263.119 889.231 L 1263.119 889.231 L 1263.119 889.231 Q 1258.739 889.231 1256.549 887.721 L 1256.549 887.721 L 1256.549 887.721 Q 1254.36 886.211 1253.604 883.568 L 1253.604 883.568 L 1253.604 883.568 Q 1252.849 880.925 1252.925 877.451 L 1252.925 877.451 L 1252.925 877.451 Q 1253 873.978 1253 870.051 L 1253 870.051 L 1253 870.051 Q 1253 866.426 1253.227 861.895 L 1253.227 861.895 L 1253.227 861.895 Q 1253.453 857.365 1254.284 852.758 L 1254.284 852.758 L 1254.284 852.758 Q 1255.115 848.152 1256.549 843.697 L 1256.549 843.697 L 1256.549 843.697 Q 1257.984 839.241 1260.401 835.692 L 1260.401 835.692 L 1260.401 835.692 Q 1262.817 832.143 1266.442 830.028 L 1266.442 830.028 L 1266.442 830.028 Q 1270.066 827.914 1275.05 827.914 L 1275.05 827.914 L 1275.05 827.914 Q 1278.222 827.914 1281.167 828.443 L 1281.167 828.443 L 1281.167 828.443 Q 1284.112 828.971 1286.604 830.331 L 1286.604 830.331 L 1286.604 830.331 Q 1289.096 831.69 1290.908 833.955 L 1290.908 833.955 L 1290.908 833.955 Q 1292.721 836.221 1293.778 839.694 L 1293.778 839.694 L 1293.778 839.694 Q 1294.382 846.491 1295.288 854.419 L 1295.288 854.419 L 1295.288 854.419 Q 1296.194 862.348 1296.798 870.882 L 1296.798 870.882 L 1296.798 870.882 Q 1297.402 879.415 1297.402 888.023 L 1297.402 888.023 L 1297.402 888.023 Q 1297.402 896.632 1296.27 904.636 L 1296.27 904.636 L 1296.27 904.636 Q 1295.137 912.641 1292.494 919.663 L 1292.494 919.663 L 1292.494 919.663 Q 1289.851 926.686 1285.094 932.048 L 1285.094 932.048 L 1285.094 932.048 Q 1280.336 937.409 1273.238 940.656 L 1273.238 940.656 L 1273.238 940.656 Q 1266.14 943.903 1256.172 944.206 L 1256.172 944.206 L 1256.172 944.206 Q 1251.943 944.206 1247.261 943.677 L 1247.261 943.677 L 1247.261 943.677 Q 1242.579 943.148 1238.653 941.563 L 1238.653 941.563 L 1238.653 941.563 Q 1234.726 939.977 1232.234 937.032 L 1232.234 937.032 L 1232.234 937.032 Q 1229.742 934.087 1229.742 929.103 Z  M 1258.739 870.051 L 1258.739 870.051 L 1258.739 870.051 Q 1258.739 871.712 1258.588 873.827 L 1258.588 873.827 L 1258.588 873.827 Q 1258.437 875.941 1258.739 878.055 L 1258.739 878.055 L 1258.739 878.055 Q 1259.041 880.17 1260.023 881.68 L 1260.023 881.68 L 1260.023 881.68 Q 1261.005 883.19 1263.27 883.341 L 1263.27 883.341 L 1263.27 883.341 Q 1266.895 883.341 1269.991 881.68 L 1269.991 881.68 L 1269.991 881.68 Q 1273.087 880.019 1275.579 877.149 L 1275.579 877.149 L 1275.579 877.149 Q 1278.071 874.28 1279.959 870.73 L 1279.959 870.73 L 1279.959 870.73 Q 1281.847 867.181 1283.13 863.406 L 1283.13 863.406 L 1283.13 863.406 Q 1284.414 859.63 1285.094 856.081 L 1285.094 856.081 L 1285.094 856.081 Q 1285.773 852.532 1285.773 849.813 L 1285.773 849.813 L 1285.773 849.813 Q 1286.226 846.944 1285.849 844.074 L 1285.849 844.074 L 1285.849 844.074 Q 1285.471 841.205 1284.112 838.939 L 1284.112 838.939 L 1284.112 838.939 Q 1282.753 836.674 1280.487 835.239 L 1280.487 835.239 L 1280.487 835.239 Q 1278.222 833.804 1275.05 833.804 L 1275.05 833.804 L 1275.05 833.804 Q 1271.426 833.804 1268.707 835.843 L 1268.707 835.843 L 1268.707 835.843 Q 1265.989 837.882 1264.176 841.054 L 1264.176 841.054 L 1264.176 841.054 Q 1262.364 844.225 1261.307 848.227 L 1261.307 848.227 L 1261.307 848.227 Q 1260.25 852.23 1259.721 856.232 L 1259.721 856.232 L 1259.721 856.232 Q 1259.192 860.234 1258.966 863.934 L 1258.966 863.934 L 1258.966 863.934 Q 1258.739 867.634 1258.739 870.051 Z  M 1304.652 834.71 L 1304.652 834.71 L 1304.652 834.71 Q 1304.652 833.955 1305.634 833.2 L 1305.634 833.2 L 1305.634 833.2 Q 1306.615 832.445 1308.05 831.992 L 1308.05 831.992 L 1308.05 831.992 Q 1309.485 831.539 1310.844 831.388 L 1310.844 831.388 L 1310.844 831.388 Q 1312.203 831.237 1312.807 831.841 L 1312.807 831.841 L 1312.807 831.841 Q 1313.713 850.568 1316.356 861.669 L 1316.356 861.669 L 1316.356 861.669 Q 1318.999 872.769 1322.398 877.904 L 1322.398 877.904 L 1322.398 877.904 Q 1325.796 883.039 1329.722 883.115 L 1329.722 883.115 L 1329.722 883.115 Q 1333.649 883.19 1337.425 879.792 L 1337.425 879.792 L 1337.425 879.792 Q 1341.201 876.394 1344.448 870.504 L 1344.448 870.504 L 1344.448 870.504 Q 1347.695 864.614 1349.734 857.818 L 1349.734 857.818 L 1349.734 857.818 Q 1351.772 851.021 1352.226 844.225 L 1352.226 844.225 L 1352.226 844.225 Q 1352.679 837.429 1351.017 832.143 L 1351.017 832.143 L 1360.079 831.086 L 1360.079 831.086 Q 1360.23 833.351 1360.91 838.562 L 1360.91 838.562 L 1360.91 838.562 Q 1361.589 843.772 1362.42 850.342 L 1362.42 850.342 L 1362.42 850.342 Q 1363.251 856.911 1364.308 864.01 L 1364.308 864.01 L 1364.308 864.01 Q 1365.365 871.108 1366.12 877.225 L 1366.12 877.225 L 1366.12 877.225 Q 1366.875 883.341 1367.479 887.646 L 1367.479 887.646 L 1367.479 887.646 Q 1368.084 891.95 1368.084 893.007 L 1368.084 893.007 L 1361.589 893.007 L 1354.491 866.879 L 1354.491 866.879 Q 1352.377 872.165 1349.356 876.998 L 1349.356 876.998 L 1349.356 876.998 Q 1346.335 881.831 1342.786 885.456 L 1342.786 885.456 L 1342.786 885.456 Q 1339.237 889.08 1335.31 891.119 L 1335.31 891.119 L 1335.31 891.119 Q 1331.384 893.158 1327.533 892.781 L 1327.533 892.781 L 1327.533 892.781 Q 1323.681 892.403 1320.057 889.231 L 1320.057 889.231 L 1320.057 889.231 Q 1316.432 886.06 1313.336 879.188 L 1313.336 879.188 L 1313.336 879.188 Q 1310.24 872.316 1307.974 861.442 L 1307.974 861.442 L 1307.974 861.442 Q 1305.709 850.568 1304.652 834.71 Z  M 1383.337 893.611 L 1381.072 834.71 L 1381.072 834.71 Q 1382.884 834.71 1384.168 834.559 L 1384.168 834.559 L 1384.168 834.559 Q 1385.452 834.408 1386.358 836.07 L 1386.358 836.07 L 1386.358 836.07 Q 1386.811 842.866 1387.415 849.889 L 1387.415 849.889 L 1387.415 849.889 Q 1388.019 856.911 1388.623 864.01 L 1388.623 864.01 L 1388.623 864.01 Q 1389.227 871.108 1389.454 878.282 L 1389.454 878.282 L 1389.454 878.282 Q 1389.68 885.456 1389.529 892.252 L 1389.529 892.252 L 1389.529 892.252 Q 1389.529 893.158 1389.076 893.385 L 1389.076 893.385 L 1389.076 893.385 Q 1388.623 893.611 1387.793 893.536 L 1387.793 893.536 L 1387.793 893.536 Q 1386.962 893.46 1385.829 893.385 L 1385.829 893.385 L 1385.829 893.385 Q 1384.697 893.309 1383.337 893.611 L 1383.337 893.611 Z  M 1372.312 807.676 L 1372.312 807.676 L 1372.312 807.676 Q 1372.312 806.619 1372.463 805.335 L 1372.463 805.335 L 1372.463 805.335 Q 1372.614 804.052 1373.143 802.995 L 1373.143 802.995 L 1373.143 802.995 Q 1373.672 801.937 1374.502 801.182 L 1374.502 801.182 L 1374.502 801.182 Q 1375.333 800.427 1376.541 800.427 L 1376.541 800.427 L 1376.541 800.427 Q 1378.353 800.427 1380.166 800.578 L 1380.166 800.578 L 1380.166 800.578 Q 1381.978 800.729 1383.639 801.258 L 1383.639 801.258 L 1383.639 801.258 Q 1385.301 801.786 1386.358 802.919 L 1386.358 802.919 L 1386.358 802.919 Q 1387.415 804.052 1387.415 806.166 L 1387.415 806.166 L 1387.415 806.166 Q 1387.415 809.791 1384.697 812.585 L 1384.697 812.585 L 1384.697 812.585 Q 1381.978 815.379 1378.051 815.379 L 1378.051 815.379 L 1378.051 815.379 Q 1375.031 815.379 1373.672 813.038 L 1373.672 813.038 L 1373.672 813.038 Q 1372.312 810.697 1372.312 807.676 Z  M 1381.072 808.432 L 1381.072 808.432 L 1381.072 808.432 Q 1380.619 808.432 1380.619 809.187 L 1380.619 809.187 L 1380.619 809.187 Q 1380.619 809.942 1381.072 809.942 L 1381.072 809.942 L 1381.072 809.942 Q 1381.676 809.942 1381.676 809.187 L 1381.676 809.187 L 1381.676 809.187 Q 1381.676 808.432 1381.072 808.432 Z  M 1393.305 871.41 L 1393.305 871.41 L 1393.305 871.41 Q 1393.305 867.332 1394.664 862.424 L 1394.664 862.424 L 1394.664 862.424 Q 1396.024 857.516 1398.591 853.362 L 1398.591 853.362 L 1398.591 853.362 Q 1401.159 849.209 1404.783 846.491 L 1404.783 846.491 L 1404.783 846.491 Q 1408.408 843.772 1413.241 843.772 L 1413.241 843.772 L 1413.241 843.772 Q 1416.865 843.772 1419.659 844.452 L 1419.659 844.452 L 1419.659 844.452 Q 1422.454 845.131 1424.945 846.717 L 1424.945 846.717 L 1424.945 846.717 Q 1427.437 848.303 1429.627 850.493 L 1429.627 850.493 L 1429.627 850.493 Q 1431.817 852.683 1434.234 855.552 L 1434.234 855.552 L 1433.328 778.075 L 1433.328 778.075 Q 1437.405 776.565 1438.387 776.867 L 1438.387 776.867 L 1438.387 776.867 Q 1439.369 777.169 1439.369 779.434 L 1439.369 779.434 L 1439.369 779.434 Q 1439.369 779.736 1439.293 780.34 L 1439.293 780.34 L 1439.293 780.34 Q 1439.218 780.944 1439.218 781.095 L 1439.218 781.095 L 1439.218 781.095 Q 1439.067 783.965 1438.991 789.251 L 1438.991 789.251 L 1438.991 789.251 Q 1438.916 794.537 1438.991 801.484 L 1438.991 801.484 L 1438.991 801.484 Q 1439.067 808.432 1439.218 816.512 L 1439.218 816.512 L 1439.218 816.512 Q 1439.369 824.591 1439.52 832.823 L 1439.52 832.823 L 1439.52 832.823 Q 1439.671 841.054 1439.897 849.134 L 1439.897 849.134 L 1439.897 849.134 Q 1440.124 857.213 1440.199 864.161 L 1440.199 864.161 L 1440.199 864.161 Q 1440.275 871.108 1440.199 876.47 L 1440.199 876.47 L 1440.199 876.47 Q 1440.124 881.831 1439.973 884.55 L 1439.973 884.55 L 1439.973 884.55 Q 1438.311 888.023 1435.366 889.836 L 1435.366 889.836 L 1435.366 889.836 Q 1432.421 891.648 1429.023 892.478 L 1429.023 892.478 L 1429.023 892.478 Q 1425.625 893.309 1422 893.46 L 1422 893.46 L 1422 893.46 Q 1418.376 893.611 1415.204 893.611 L 1415.204 893.611 L 1415.204 893.611 Q 1405.085 893.611 1399.195 887.646 L 1399.195 887.646 L 1399.195 887.646 Q 1393.305 881.68 1393.305 871.41 Z  M 1399.346 867.332 L 1399.346 867.332 L 1399.346 867.332 Q 1399.346 871.108 1399.95 874.808 L 1399.95 874.808 L 1399.95 874.808 Q 1400.554 878.508 1402.065 881.378 L 1402.065 881.378 L 1402.065 881.378 Q 1403.575 884.247 1406.294 885.984 L 1406.294 885.984 L 1406.294 885.984 Q 1409.012 887.721 1413.241 887.721 L 1413.241 887.721 L 1413.241 887.721 Q 1415.808 887.721 1419.433 887.721 L 1419.433 887.721 L 1419.433 887.721 Q 1423.058 887.721 1426.38 886.89 L 1426.38 886.89 L 1426.38 886.89 Q 1429.703 886.06 1431.968 884.247 L 1431.968 884.247 L 1431.968 884.247 Q 1434.234 882.435 1434.234 879.113 L 1434.234 879.113 L 1434.234 879.113 Q 1434.234 875.186 1433.101 870.126 L 1433.101 870.126 L 1433.101 870.126 Q 1431.968 865.067 1429.627 860.461 L 1429.627 860.461 L 1429.627 860.461 Q 1427.286 855.854 1423.737 852.607 L 1423.737 852.607 L 1423.737 852.607 Q 1420.188 849.36 1415.355 849.36 L 1415.355 849.36 L 1415.355 849.36 Q 1412.184 849.36 1409.314 851.021 L 1409.314 851.021 L 1409.314 851.021 Q 1406.445 852.683 1404.255 855.25 L 1404.255 855.25 L 1404.255 855.25 Q 1402.065 857.818 1400.706 860.989 L 1400.706 860.989 L 1400.706 860.989 Q 1399.346 864.161 1399.346 867.332 Z  M 1447.222 857.818 L 1447.222 857.818 L 1447.222 857.818 Q 1447.222 853.287 1449.185 847.774 L 1449.185 847.774 L 1449.185 847.774 Q 1451.149 842.262 1454.547 837.504 L 1454.547 837.504 L 1454.547 837.504 Q 1457.945 832.747 1462.249 829.5 L 1462.249 829.5 L 1462.249 829.5 Q 1466.554 826.253 1471.235 826.253 L 1471.235 826.253 L 1471.235 826.253 Q 1473.803 826.253 1476.295 827.31 L 1476.295 827.31 L 1476.295 827.31 Q 1478.787 828.367 1481.128 830.104 L 1481.128 830.104 L 1481.128 830.104 Q 1483.469 831.841 1485.357 834.031 L 1485.357 834.031 L 1485.357 834.031 Q 1487.244 836.221 1488.302 838.637 L 1488.302 838.637 L 1488.302 838.637 Q 1489.359 841.054 1489.434 843.319 L 1489.434 843.319 L 1489.434 843.319 Q 1489.51 845.584 1488.151 847.246 L 1488.151 847.246 L 1456.284 853.136 L 1456.284 853.136 Q 1455.68 853.287 1455.227 854.571 L 1455.227 854.571 L 1455.227 854.571 Q 1454.773 855.854 1454.471 857.818 L 1454.471 857.818 L 1454.471 857.818 Q 1454.169 859.781 1453.943 862.122 L 1453.943 862.122 L 1453.943 862.122 Q 1453.716 864.463 1453.565 866.653 L 1453.565 866.653 L 1453.565 866.653 Q 1453.414 868.843 1453.414 870.579 L 1453.414 870.579 L 1453.414 870.579 Q 1453.414 872.316 1453.414 873.222 L 1453.414 873.222 L 1453.414 873.222 Q 1453.414 877.451 1455.453 880.094 L 1455.453 880.094 L 1455.453 880.094 Q 1457.492 882.737 1460.664 884.096 L 1460.664 884.096 L 1460.664 884.096 Q 1463.835 885.456 1467.837 885.909 L 1467.837 885.909 L 1467.837 885.909 Q 1471.84 886.362 1475.766 886.362 L 1475.766 886.362 L 1475.766 886.362 Q 1479.693 886.362 1483.167 886.06 L 1483.167 886.06 L 1483.167 886.06 Q 1486.64 885.758 1488.906 885.758 L 1488.906 885.758 L 1488.906 885.758 Q 1488.906 886.362 1488.453 887.117 L 1488.453 887.117 L 1488.453 887.117 Q 1488 887.872 1487.395 888.552 L 1487.395 888.552 L 1487.395 888.552 Q 1486.791 889.231 1486.187 889.76 L 1486.187 889.76 L 1486.187 889.76 Q 1485.583 890.289 1485.432 890.44 L 1485.432 890.44 L 1485.432 890.44 Q 1484.224 890.742 1481.732 891.27 L 1481.732 891.27 L 1481.732 891.27 Q 1479.24 891.799 1476.446 892.252 L 1476.446 892.252 L 1476.446 892.252 Q 1473.652 892.705 1471.235 893.007 L 1471.235 893.007 L 1471.235 893.007 Q 1468.819 893.309 1467.913 893.309 L 1467.913 893.309 L 1467.913 893.309 Q 1463.231 894.215 1459.757 893.158 L 1459.757 893.158 L 1459.757 893.158 Q 1456.284 892.101 1453.867 889.533 L 1453.867 889.533 L 1453.867 889.533 Q 1451.451 886.966 1449.941 883.266 L 1449.941 883.266 L 1449.941 883.266 Q 1448.43 879.566 1447.675 875.337 L 1447.675 875.337 L 1447.675 875.337 Q 1446.92 871.108 1446.845 866.577 L 1446.845 866.577 L 1446.845 866.577 Q 1446.769 862.046 1447.222 857.818 Z  M 1469.121 831.992 L 1469.121 831.992 L 1469.121 831.992 Q 1467.762 831.992 1465.572 833.427 L 1465.572 833.427 L 1465.572 833.427 Q 1463.382 834.861 1461.494 837.051 L 1461.494 837.051 L 1461.494 837.051 Q 1459.606 839.241 1458.323 841.733 L 1458.323 841.733 L 1458.323 841.733 Q 1457.039 844.225 1457.492 846.037 L 1457.492 846.037 L 1457.492 846.037 Q 1461.419 846.491 1465.647 845.886 L 1465.647 845.886 L 1465.647 845.886 Q 1469.876 845.282 1473.35 843.999 L 1473.35 843.999 L 1473.35 843.999 Q 1476.824 842.715 1479.089 840.978 L 1479.089 840.978 L 1479.089 840.978 Q 1481.354 839.241 1481.279 837.429 L 1481.279 837.429 L 1481.279 837.429 Q 1481.203 835.617 1478.409 834.182 L 1478.409 834.182 L 1478.409 834.182 Q 1475.615 832.747 1469.121 831.992 Z  M 819.853 834.408 L 819.853 834.408 L 819.853 834.408 Q 821.665 833.653 823.024 834.106 L 823.024 834.106 L 823.024 834.106 Q 824.383 834.559 825.29 835.768 L 825.29 835.768 L 825.29 835.768 Q 826.196 836.976 826.649 838.562 L 826.649 838.562 L 826.649 838.562 Q 827.102 840.147 827.404 841.658 L 827.404 841.658 L 827.404 841.658 Q 829.367 838.335 833.068 836.296 L 833.068 836.296 L 833.068 836.296 Q 836.768 834.257 840.996 833.578 L 840.996 833.578 L 840.996 833.578 Q 845.225 832.898 849.454 833.276 L 849.454 833.276 L 849.454 833.276 Q 853.683 833.653 856.628 835.088 L 856.628 835.088 L 856.628 835.088 Q 859.573 836.523 860.781 839.015 L 860.781 839.015 L 860.781 839.015 Q 861.989 841.507 860.177 844.829 L 860.177 844.829 L 860.177 844.829 Q 856.25 842.564 851.946 841.205 L 851.946 841.205 L 851.946 841.205 Q 847.642 839.845 843.564 840.298 L 843.564 840.298 L 843.564 840.298 Q 839.486 840.751 836.013 843.394 L 836.013 843.394 L 836.013 843.394 Q 832.539 846.037 830.273 851.776 L 830.273 851.776 L 830.273 851.776 Q 828.008 857.516 827.479 866.955 L 827.479 866.955 L 827.479 866.955 Q 826.951 876.394 828.763 890.44 L 828.763 890.44 L 823.024 890.44 L 823.024 890.44 Q 823.024 890.44 822.798 887.948 L 822.798 887.948 L 822.798 887.948 Q 822.571 885.456 822.345 881.378 L 822.345 881.378 L 822.345 881.378 Q 822.118 877.3 821.74 872.316 L 821.74 872.316 L 821.74 872.316 Q 821.363 867.332 821.061 862.197 L 821.061 862.197 L 821.061 862.197 Q 820.759 857.062 820.532 852.305 L 820.532 852.305 L 820.532 852.305 Q 820.306 847.548 820.004 844.074 L 820.004 844.074 L 820.004 844.074 Q 820.004 843.621 819.928 842.262 L 819.928 842.262 L 819.928 842.262 Q 819.853 840.902 819.853 839.317 L 819.853 839.317 L 819.853 839.317 Q 819.853 837.731 819.853 836.372 L 819.853 836.372 L 819.853 836.372 Q 819.853 835.012 819.853 834.408 Z  M 868.03 857.818 L 868.03 857.818 L 868.03 857.818 Q 868.03 853.287 869.994 847.774 L 869.994 847.774 L 869.994 847.774 Q 871.957 842.262 875.355 837.504 L 875.355 837.504 L 875.355 837.504 Q 878.753 832.747 883.058 829.5 L 883.058 829.5 L 883.058 829.5 Q 887.362 826.253 892.044 826.253 L 892.044 826.253 L 892.044 826.253 Q 894.611 826.253 897.103 827.31 L 897.103 827.31 L 897.103 827.31 Q 899.595 828.367 901.936 830.104 L 901.936 830.104 L 901.936 830.104 Q 904.277 831.841 906.165 834.031 L 906.165 834.031 L 906.165 834.031 Q 908.053 836.221 909.11 838.637 L 909.11 838.637 L 909.11 838.637 Q 910.167 841.054 910.243 843.319 L 910.243 843.319 L 910.243 843.319 Q 910.318 845.584 908.959 847.246 L 908.959 847.246 L 877.092 853.136 L 877.092 853.136 Q 876.488 853.287 876.035 854.571 L 876.035 854.571 L 876.035 854.571 Q 875.582 855.854 875.28 857.818 L 875.28 857.818 L 875.28 857.818 Q 874.978 859.781 874.751 862.122 L 874.751 862.122 L 874.751 862.122 Q 874.525 864.463 874.374 866.653 L 874.374 866.653 L 874.374 866.653 Q 874.223 868.843 874.223 870.579 L 874.223 870.579 L 874.223 870.579 Q 874.223 872.316 874.223 873.222 L 874.223 873.222 L 874.223 873.222 Q 874.223 877.451 876.261 880.094 L 876.261 880.094 L 876.261 880.094 Q 878.3 882.737 881.472 884.096 L 881.472 884.096 L 881.472 884.096 Q 884.644 885.456 888.646 885.909 L 888.646 885.909 L 888.646 885.909 Q 892.648 886.362 896.575 886.362 L 896.575 886.362 L 896.575 886.362 Q 900.501 886.362 903.975 886.06 L 903.975 886.06 L 903.975 886.06 Q 907.449 885.758 909.714 885.758 L 909.714 885.758 L 909.714 885.758 Q 909.714 886.362 909.261 887.117 L 909.261 887.117 L 909.261 887.117 Q 908.808 887.872 908.204 888.552 L 908.204 888.552 L 908.204 888.552 Q 907.6 889.231 906.996 889.76 L 906.996 889.76 L 906.996 889.76 Q 906.392 890.289 906.24 890.44 L 906.24 890.44 L 906.24 890.44 Q 905.032 890.742 902.54 891.27 L 902.54 891.27 L 902.54 891.27 Q 900.048 891.799 897.254 892.252 L 897.254 892.252 L 897.254 892.252 Q 894.46 892.705 892.044 893.007 L 892.044 893.007 L 892.044 893.007 Q 889.627 893.309 888.721 893.309 L 888.721 893.309 L 888.721 893.309 Q 884.039 894.215 880.566 893.158 L 880.566 893.158 L 880.566 893.158 Q 877.092 892.101 874.676 889.533 L 874.676 889.533 L 874.676 889.533 Q 872.259 886.966 870.749 883.266 L 870.749 883.266 L 870.749 883.266 Q 869.239 879.566 868.484 875.337 L 868.484 875.337 L 868.484 875.337 Q 867.728 871.108 867.653 866.577 L 867.653 866.577 L 867.653 866.577 Q 867.577 862.046 868.03 857.818 Z  M 889.929 831.992 L 889.929 831.992 L 889.929 831.992 Q 888.57 831.992 886.38 833.427 L 886.38 833.427 L 886.38 833.427 Q 884.19 834.861 882.303 837.051 L 882.303 837.051 L 882.303 837.051 Q 880.415 839.241 879.131 841.733 L 879.131 841.733 L 879.131 841.733 Q 877.847 844.225 878.3 846.037 L 878.3 846.037 L 878.3 846.037 Q 882.227 846.491 886.456 845.886 L 886.456 845.886 L 886.456 845.886 Q 890.685 845.282 894.158 843.999 L 894.158 843.999 L 894.158 843.999 Q 897.632 842.715 899.897 840.978 L 899.897 840.978 L 899.897 840.978 Q 902.163 839.241 902.087 837.429 L 902.087 837.429 L 902.087 837.429 Q 902.012 835.617 899.218 834.182 L 899.218 834.182 L 899.218 834.182 Q 896.424 832.747 889.929 831.992 Z  M 920.135 892.554 L 920.135 892.554 L 920.135 892.554 Q 919.833 890.138 919.606 885.531 L 919.606 885.531 L 919.606 885.531 Q 919.38 880.925 919.153 875.11 L 919.153 875.11 L 919.153 875.11 Q 918.927 869.296 918.776 862.953 L 918.776 862.953 L 918.776 862.953 Q 918.625 856.609 918.474 850.87 L 918.474 850.87 L 918.474 850.87 Q 918.323 845.131 918.096 840.525 L 918.096 840.525 L 918.096 840.525 Q 917.87 835.919 917.417 833.502 L 917.417 833.502 L 917.417 833.502 Q 917.417 833.351 917.341 832.747 L 917.341 832.747 L 917.341 832.747 Q 917.266 832.143 917.19 831.388 L 917.19 831.388 L 917.19 831.388 Q 917.114 830.633 917.114 830.104 L 917.114 830.104 L 917.114 830.104 Q 917.114 829.575 917.114 829.273 L 917.114 829.273 L 917.114 829.273 Q 919.38 827.461 920.966 828.065 L 920.966 828.065 L 920.966 828.065 Q 922.551 828.669 923.609 830.708 L 923.609 830.708 L 923.609 830.708 Q 924.666 832.747 925.119 835.768 L 925.119 835.768 L 925.119 835.768 Q 925.572 838.788 925.799 841.809 L 925.799 841.809 L 925.799 841.809 Q 926.025 844.829 926.025 847.321 L 926.025 847.321 L 926.025 847.321 Q 926.025 849.813 926.025 850.87 L 926.025 850.87 L 926.025 850.87 Q 926.327 848.303 926.931 844.829 L 926.931 844.829 L 926.931 844.829 Q 927.535 841.356 928.744 837.731 L 928.744 837.731 L 928.744 837.731 Q 929.952 834.106 931.689 830.557 L 931.689 830.557 L 931.689 830.557 Q 933.425 827.008 935.993 824.289 L 935.993 824.289 L 935.993 824.289 Q 938.56 821.571 941.808 820.061 L 941.808 820.061 L 941.808 820.061 Q 945.055 818.55 949.283 818.852 L 949.283 818.852 L 949.283 818.852 Q 955.929 819.154 960.233 822.477 L 960.233 822.477 L 960.233 822.477 Q 964.537 825.8 967.029 831.388 L 967.029 831.388 L 967.029 831.388 Q 969.521 836.976 970.654 844.225 L 970.654 844.225 L 970.654 844.225 Q 971.787 851.474 972.164 859.63 L 972.164 859.63 L 972.164 859.63 Q 972.542 867.785 972.391 876.167 L 972.391 876.167 L 972.391 876.167 Q 972.24 884.55 972.24 892.252 L 972.24 892.252 L 972.24 892.252 Q 970.88 892.554 969.521 893.234 L 969.521 893.234 L 969.521 893.234 Q 968.162 893.913 967.256 893.838 L 967.256 893.838 L 967.256 893.838 Q 966.35 893.762 965.972 892.478 L 965.972 892.478 L 965.972 892.478 Q 965.594 891.195 966.199 887.419 L 966.199 887.419 L 966.199 887.419 Q 966.35 884.701 966.727 879.037 L 966.727 879.037 L 966.727 879.037 Q 967.105 873.373 967.029 866.426 L 967.029 866.426 L 967.029 866.426 Q 966.954 859.479 966.199 852.079 L 966.199 852.079 L 966.199 852.079 Q 965.443 844.678 963.405 838.562 L 963.405 838.562 L 963.405 838.562 Q 961.366 832.445 957.59 828.594 L 957.59 828.594 L 957.59 828.594 Q 953.814 824.743 947.773 824.743 L 947.773 824.743 L 947.773 824.743 Q 941.581 827.31 937.428 834.408 L 937.428 834.408 L 937.428 834.408 Q 933.274 841.507 930.782 851.021 L 930.782 851.021 L 930.782 851.021 Q 928.291 860.536 927.158 871.637 L 927.158 871.637 L 927.158 871.637 Q 926.025 882.737 925.874 893.309 L 925.874 893.309 L 925.874 893.309 Q 925.572 893.158 924.741 893.158 L 924.741 893.158 L 924.741 893.158 Q 923.911 893.158 922.929 893.083 L 922.929 893.083 L 922.929 893.083 Q 921.947 893.007 921.117 892.856 L 921.117 892.856 L 921.117 892.856 Q 920.286 892.705 920.135 892.554 Z  M 997.612 838.486 L 997.612 838.486 L 997.612 838.486 Q 996.253 838.033 993.912 838.108 L 993.912 838.108 L 993.912 838.108 Q 991.571 838.184 988.928 838.411 L 988.928 838.411 L 988.928 838.411 Q 986.285 838.637 983.869 838.939 L 983.869 838.939 L 983.869 838.939 Q 981.452 839.241 979.791 839.241 L 979.791 839.241 L 979.791 839.241 Q 979.036 839.241 978.809 837.051 L 978.809 837.051 L 978.809 837.051 Q 978.583 834.861 978.13 831.086 L 978.13 831.086 L 999.425 829.575 L 999.425 829.575 Q 999.878 824.289 1000.029 822.024 L 1000.029 822.024 L 1000.029 822.024 Q 1000.18 819.759 1000.104 818.173 L 1000.104 818.173 L 1000.104 818.173 Q 1000.029 816.587 999.953 814.548 L 999.953 814.548 L 999.953 814.548 Q 999.878 812.509 999.878 808.129 L 999.878 808.129 L 999.878 808.129 Q 1003.804 807.525 1005.843 807.752 L 1005.843 807.752 L 1005.843 807.752 Q 1007.882 807.978 1008.637 808.885 L 1008.637 808.885 L 1008.637 808.885 Q 1009.392 809.791 1009.317 811.528 L 1009.317 811.528 L 1009.317 811.528 Q 1009.241 813.264 1008.864 815.832 L 1008.864 815.832 L 1008.864 815.832 Q 1008.486 818.399 1008.26 822.024 L 1008.26 822.024 L 1008.26 822.024 Q 1008.033 825.649 1008.486 830.18 L 1008.486 830.18 L 1026.61 829.575 L 1026.61 836.976 L 1026.61 836.976 Q 1025.401 836.976 1022.834 837.127 L 1022.834 837.127 L 1022.834 837.127 Q 1020.266 837.278 1017.321 837.429 L 1017.321 837.429 L 1017.321 837.429 Q 1014.376 837.58 1011.884 837.731 L 1011.884 837.731 L 1011.884 837.731 Q 1009.392 837.882 1008.184 838.335 L 1008.184 838.335 L 1008.184 838.335 Q 1006.976 843.772 1005.617 849.964 L 1005.617 849.964 L 1005.617 849.964 Q 1004.258 856.156 1003.804 862.197 L 1003.804 862.197 L 1003.804 862.197 Q 1003.351 868.239 1004.106 873.449 L 1004.106 873.449 L 1004.106 873.449 Q 1004.862 878.659 1007.882 882.058 L 1007.882 882.058 L 1007.882 882.058 Q 1010.903 885.456 1016.491 886.739 L 1016.491 886.739 L 1016.491 886.739 Q 1022.079 888.023 1031.292 885.909 L 1031.292 885.909 L 1031.292 885.909 Q 1030.989 888.174 1029.555 889.609 L 1029.555 889.609 L 1029.555 889.609 Q 1028.12 891.044 1026.232 891.874 L 1026.232 891.874 L 1026.232 891.874 Q 1024.344 892.705 1022.23 893.083 L 1022.23 893.083 L 1022.23 893.083 Q 1020.115 893.46 1018.454 893.46 L 1018.454 893.46 L 1018.454 893.46 Q 1010.752 893.46 1006.221 890.666 L 1006.221 890.666 L 1006.221 890.666 Q 1001.69 887.872 999.425 883.341 L 999.425 883.341 L 999.425 883.341 Q 997.159 878.81 996.555 872.996 L 996.555 872.996 L 996.555 872.996 Q 995.951 867.181 996.178 861.14 L 996.178 861.14 L 996.178 861.14 Q 996.404 855.099 997.008 849.209 L 997.008 849.209 L 997.008 849.209 Q 997.612 843.319 997.612 838.486 Z  M 1037.484 857.818 L 1037.484 857.818 L 1037.484 857.818 Q 1037.484 853.287 1039.447 847.774 L 1039.447 847.774 L 1039.447 847.774 Q 1041.41 842.262 1044.808 837.504 L 1044.808 837.504 L 1044.808 837.504 Q 1048.207 832.747 1052.511 829.5 L 1052.511 829.5 L 1052.511 829.5 Q 1056.815 826.253 1061.497 826.253 L 1061.497 826.253 L 1061.497 826.253 Q 1064.065 826.253 1066.556 827.31 L 1066.556 827.31 L 1066.556 827.31 Q 1069.048 828.367 1071.389 830.104 L 1071.389 830.104 L 1071.389 830.104 Q 1073.73 831.841 1075.618 834.031 L 1075.618 834.031 L 1075.618 834.031 Q 1077.506 836.221 1078.563 838.637 L 1078.563 838.637 L 1078.563 838.637 Q 1079.62 841.054 1079.696 843.319 L 1079.696 843.319 L 1079.696 843.319 Q 1079.771 845.584 1078.412 847.246 L 1078.412 847.246 L 1046.545 853.136 L 1046.545 853.136 Q 1045.941 853.287 1045.488 854.571 L 1045.488 854.571 L 1045.488 854.571 Q 1045.035 855.854 1044.733 857.818 L 1044.733 857.818 L 1044.733 857.818 Q 1044.431 859.781 1044.204 862.122 L 1044.204 862.122 L 1044.204 862.122 Q 1043.978 864.463 1043.827 866.653 L 1043.827 866.653 L 1043.827 866.653 Q 1043.676 868.843 1043.676 870.579 L 1043.676 870.579 L 1043.676 870.579 Q 1043.676 872.316 1043.676 873.222 L 1043.676 873.222 L 1043.676 873.222 Q 1043.676 877.451 1045.715 880.094 L 1045.715 880.094 L 1045.715 880.094 Q 1047.754 882.737 1050.925 884.096 L 1050.925 884.096 L 1050.925 884.096 Q 1054.097 885.456 1058.099 885.909 L 1058.099 885.909 L 1058.099 885.909 Q 1062.101 886.362 1066.028 886.362 L 1066.028 886.362 L 1066.028 886.362 Q 1069.955 886.362 1073.428 886.06 L 1073.428 886.06 L 1073.428 886.06 Q 1076.902 885.758 1079.167 885.758 L 1079.167 885.758 L 1079.167 885.758 Q 1079.167 886.362 1078.714 887.117 L 1078.714 887.117 L 1078.714 887.117 Q 1078.261 887.872 1077.657 888.552 L 1077.657 888.552 L 1077.657 888.552 Q 1077.053 889.231 1076.449 889.76 L 1076.449 889.76 L 1076.449 889.76 Q 1075.845 890.289 1075.694 890.44 L 1075.694 890.44 L 1075.694 890.44 Q 1074.485 890.742 1071.993 891.27 L 1071.993 891.27 L 1071.993 891.27 Q 1069.502 891.799 1066.708 892.252 L 1066.708 892.252 L 1066.708 892.252 Q 1063.914 892.705 1061.497 893.007 L 1061.497 893.007 L 1061.497 893.007 Q 1059.081 893.309 1058.174 893.309 L 1058.174 893.309 L 1058.174 893.309 Q 1053.493 894.215 1050.019 893.158 L 1050.019 893.158 L 1050.019 893.158 Q 1046.545 892.101 1044.129 889.533 L 1044.129 889.533 L 1044.129 889.533 Q 1041.712 886.966 1040.202 883.266 L 1040.202 883.266 L 1040.202 883.266 Q 1038.692 879.566 1037.937 875.337 L 1037.937 875.337 L 1037.937 875.337 Q 1037.182 871.108 1037.106 866.577 L 1037.106 866.577 L 1037.106 866.577 Q 1037.031 862.046 1037.484 857.818 Z  M 1059.383 831.992 L 1059.383 831.992 L 1059.383 831.992 Q 1058.023 831.992 1055.834 833.427 L 1055.834 833.427 L 1055.834 833.427 Q 1053.644 834.861 1051.756 837.051 L 1051.756 837.051 L 1051.756 837.051 Q 1049.868 839.241 1048.584 841.733 L 1048.584 841.733 L 1048.584 841.733 Q 1047.3 844.225 1047.754 846.037 L 1047.754 846.037 L 1047.754 846.037 Q 1051.68 846.491 1055.909 845.886 L 1055.909 845.886 L 1055.909 845.886 Q 1060.138 845.282 1063.611 843.999 L 1063.611 843.999 L 1063.611 843.999 Q 1067.085 842.715 1069.351 840.978 L 1069.351 840.978 L 1069.351 840.978 Q 1071.616 839.241 1071.54 837.429 L 1071.54 837.429 L 1071.54 837.429 Q 1071.465 835.617 1068.671 834.182 L 1068.671 834.182 L 1068.671 834.182 Q 1065.877 832.747 1059.383 831.992 Z  M 1086.417 834.408 L 1086.417 834.408 L 1086.417 834.408 Q 1088.229 833.653 1089.588 834.106 L 1089.588 834.106 L 1089.588 834.106 Q 1090.947 834.559 1091.854 835.768 L 1091.854 835.768 L 1091.854 835.768 Q 1092.76 836.976 1093.213 838.562 L 1093.213 838.562 L 1093.213 838.562 Q 1093.666 840.147 1093.968 841.658 L 1093.968 841.658 L 1093.968 841.658 Q 1095.931 838.335 1099.632 836.296 L 1099.632 836.296 L 1099.632 836.296 Q 1103.332 834.257 1107.561 833.578 L 1107.561 833.578 L 1107.561 833.578 Q 1111.789 832.898 1116.018 833.276 L 1116.018 833.276 L 1116.018 833.276 Q 1120.247 833.653 1123.192 835.088 L 1123.192 835.088 L 1123.192 835.088 Q 1126.137 836.523 1127.345 839.015 L 1127.345 839.015 L 1127.345 839.015 Q 1128.553 841.507 1126.741 844.829 L 1126.741 844.829 L 1126.741 844.829 Q 1122.814 842.564 1118.51 841.205 L 1118.51 841.205 L 1118.51 841.205 Q 1114.206 839.845 1110.128 840.298 L 1110.128 840.298 L 1110.128 840.298 Q 1106.05 840.751 1102.577 843.394 L 1102.577 843.394 L 1102.577 843.394 Q 1099.103 846.037 1096.838 851.776 L 1096.838 851.776 L 1096.838 851.776 Q 1094.572 857.516 1094.044 866.955 L 1094.044 866.955 L 1094.044 866.955 Q 1093.515 876.394 1095.327 890.44 L 1095.327 890.44 L 1089.588 890.44 L 1089.588 890.44 Q 1089.588 890.44 1089.362 887.948 L 1089.362 887.948 L 1089.362 887.948 Q 1089.135 885.456 1088.909 881.378 L 1088.909 881.378 L 1088.909 881.378 Q 1088.682 877.3 1088.304 872.316 L 1088.304 872.316 L 1088.304 872.316 Q 1087.927 867.332 1087.625 862.197 L 1087.625 862.197 L 1087.625 862.197 Q 1087.323 857.062 1087.096 852.305 L 1087.096 852.305 L 1087.096 852.305 Q 1086.87 847.548 1086.568 844.074 L 1086.568 844.074 L 1086.568 844.074 Q 1086.568 843.621 1086.492 842.262 L 1086.492 842.262 L 1086.492 842.262 Q 1086.417 840.902 1086.417 839.317 L 1086.417 839.317 L 1086.417 839.317 Q 1086.417 837.731 1086.417 836.372 L 1086.417 836.372 L 1086.417 836.372 Q 1086.417 835.012 1086.417 834.408 Z  M 1141.542 881.076 L 1141.542 881.076 L 1141.542 881.076 Q 1144.26 881.076 1146.601 882.133 L 1146.601 882.133 L 1146.601 882.133 Q 1148.942 883.19 1151.208 884.474 L 1151.208 884.474 L 1151.208 884.474 Q 1153.473 885.758 1155.814 886.739 L 1155.814 886.739 L 1155.814 886.739 Q 1158.155 887.721 1160.873 887.721 L 1160.873 887.721 L 1160.873 887.721 Q 1164.045 887.721 1167.443 886.588 L 1167.443 886.588 L 1167.443 886.588 Q 1170.841 885.456 1173.711 883.417 L 1173.711 883.417 L 1173.711 883.417 Q 1176.58 881.378 1178.393 878.433 L 1178.393 878.433 L 1178.393 878.433 Q 1180.205 875.488 1180.205 872.014 L 1180.205 872.014 L 1180.205 872.014 Q 1180.356 870.957 1180.28 869.447 L 1180.28 869.447 L 1180.28 869.447 Q 1180.205 867.936 1179.299 866.351 L 1179.299 866.351 L 1179.299 866.351 Q 1178.393 864.765 1176.278 863.33 L 1176.278 863.33 L 1176.278 863.33 Q 1174.164 861.895 1170.162 861.14 L 1170.162 861.14 L 1170.162 861.14 Q 1166.159 860.385 1160.118 860.31 L 1160.118 860.31 L 1160.118 860.31 Q 1154.077 860.234 1145.166 861.442 L 1145.166 861.442 L 1145.166 861.442 Q 1142.901 861.442 1140.787 860.159 L 1140.787 860.159 L 1140.787 860.159 Q 1138.672 858.875 1137.011 856.987 L 1137.011 856.987 L 1137.011 856.987 Q 1135.35 855.099 1134.292 852.909 L 1134.292 852.909 L 1134.292 852.909 Q 1133.235 850.719 1133.235 848.756 L 1133.235 848.756 L 1133.235 848.756 Q 1133.235 842.866 1135.727 839.166 L 1135.727 839.166 L 1135.727 839.166 Q 1138.219 835.465 1142.146 833.276 L 1142.146 833.276 L 1142.146 833.276 Q 1146.073 831.086 1150.906 830.18 L 1150.906 830.18 L 1150.906 830.18 Q 1155.738 829.273 1160.722 829.273 L 1160.722 829.273 L 1160.722 829.273 Q 1162.988 829.273 1165.933 829.5 L 1165.933 829.5 L 1165.933 829.5 Q 1168.878 829.726 1171.37 830.708 L 1171.37 830.708 L 1171.37 830.708 Q 1173.862 831.69 1175.599 833.804 L 1175.599 833.804 L 1175.599 833.804 Q 1177.335 835.919 1177.335 839.694 L 1177.335 839.694 L 1177.335 839.694 Q 1177.033 842.262 1176.505 842.79 L 1176.505 842.79 L 1176.505 842.79 Q 1175.976 843.319 1174.994 842.488 L 1174.994 842.488 L 1174.994 842.488 Q 1174.013 841.658 1172.654 840.147 L 1172.654 840.147 L 1172.654 840.147 Q 1171.294 838.637 1169.406 837.202 L 1169.406 837.202 L 1169.406 837.202 Q 1167.519 835.768 1164.876 835.012 L 1164.876 835.012 L 1164.876 835.012 Q 1162.233 834.257 1158.91 835.012 L 1158.91 835.012 L 1158.91 835.012 Q 1155.436 835.012 1151.963 835.692 L 1151.963 835.692 L 1151.963 835.692 Q 1148.489 836.372 1145.695 838.033 L 1145.695 838.033 L 1145.695 838.033 Q 1142.901 839.694 1141.164 842.564 L 1141.164 842.564 L 1141.164 842.564 Q 1139.427 845.433 1139.427 849.813 L 1139.427 849.813 L 1139.427 849.813 Q 1139.427 852.079 1141.466 852.909 L 1141.466 852.909 L 1141.466 852.909 Q 1143.505 853.74 1146.903 853.74 L 1146.903 853.74 L 1146.903 853.74 Q 1150.301 853.74 1154.606 853.513 L 1154.606 853.513 L 1154.606 853.513 Q 1158.91 853.287 1163.441 853.287 L 1163.441 853.287 L 1163.441 853.287 Q 1167.972 853.287 1172.2 853.966 L 1172.2 853.966 L 1172.2 853.966 Q 1176.429 854.646 1179.676 856.685 L 1179.676 856.685 L 1179.676 856.685 Q 1182.923 858.724 1184.736 862.499 L 1184.736 862.499 L 1184.736 862.499 Q 1186.548 866.275 1186.095 872.316 L 1186.095 872.316 L 1186.095 872.316 Q 1186.095 876.696 1183.603 880.623 L 1183.603 880.623 L 1183.603 880.623 Q 1181.111 884.55 1177.26 887.495 L 1177.26 887.495 L 1177.26 887.495 Q 1173.409 890.44 1168.727 892.101 L 1168.727 892.101 L 1168.727 892.101 Q 1164.045 893.762 1159.665 893.309 L 1159.665 893.309 L 1159.665 893.309 Q 1157.853 893.158 1154.757 892.327 L 1154.757 892.327 L 1154.757 892.327 Q 1151.661 891.497 1148.716 889.987 L 1148.716 889.987 L 1148.716 889.987 Q 1145.771 888.476 1143.656 886.286 L 1143.656 886.286 L 1143.656 886.286 Q 1141.542 884.096 1141.542 881.076 Z  M 566.277 838.486 L 566.277 838.486 L 566.277 838.486 Q 564.918 838.033 562.577 838.108 L 562.577 838.108 L 562.577 838.108 Q 560.236 838.184 557.593 838.411 L 557.593 838.411 L 557.593 838.411 Q 554.95 838.637 552.533 838.939 L 552.533 838.939 L 552.533 838.939 Q 550.117 839.241 548.456 839.241 L 548.456 839.241 L 548.456 839.241 Q 547.7 839.241 547.474 837.051 L 547.474 837.051 L 547.474 837.051 Q 547.247 834.861 546.794 831.086 L 546.794 831.086 L 568.089 829.575 L 568.089 829.575 Q 568.542 824.289 568.693 822.024 L 568.693 822.024 L 568.693 822.024 Q 568.844 819.759 568.769 818.173 L 568.769 818.173 L 568.769 818.173 Q 568.693 816.587 568.618 814.548 L 568.618 814.548 L 568.618 814.548 Q 568.542 812.509 568.542 808.129 L 568.542 808.129 L 568.542 808.129 Q 572.469 807.525 574.508 807.752 L 574.508 807.752 L 574.508 807.752 Q 576.547 807.978 577.302 808.885 L 577.302 808.885 L 577.302 808.885 Q 578.057 809.791 577.982 811.528 L 577.982 811.528 L 577.982 811.528 Q 577.906 813.264 577.528 815.832 L 577.528 815.832 L 577.528 815.832 Q 577.151 818.399 576.924 822.024 L 576.924 822.024 L 576.924 822.024 Q 576.698 825.649 577.151 830.18 L 577.151 830.18 L 595.274 829.575 L 595.274 836.976 L 595.274 836.976 Q 594.066 836.976 591.499 837.127 L 591.499 837.127 L 591.499 837.127 Q 588.931 837.278 585.986 837.429 L 585.986 837.429 L 585.986 837.429 Q 583.041 837.58 580.549 837.731 L 580.549 837.731 L 580.549 837.731 Q 578.057 837.882 576.849 838.335 L 576.849 838.335 L 576.849 838.335 Q 575.641 843.772 574.281 849.964 L 574.281 849.964 L 574.281 849.964 Q 572.922 856.156 572.469 862.197 L 572.469 862.197 L 572.469 862.197 Q 572.016 868.239 572.771 873.449 L 572.771 873.449 L 572.771 873.449 Q 573.526 878.659 576.547 882.058 L 576.547 882.058 L 576.547 882.058 Q 579.567 885.456 585.155 886.739 L 585.155 886.739 L 585.155 886.739 Q 590.743 888.023 599.956 885.909 L 599.956 885.909 L 599.956 885.909 Q 599.654 888.174 598.219 889.609 L 598.219 889.609 L 598.219 889.609 Q 596.785 891.044 594.897 891.874 L 594.897 891.874 L 594.897 891.874 Q 593.009 892.705 590.894 893.083 L 590.894 893.083 L 590.894 893.083 Q 588.78 893.46 587.119 893.46 L 587.119 893.46 L 587.119 893.46 Q 579.416 893.46 574.885 890.666 L 574.885 890.666 L 574.885 890.666 Q 570.355 887.872 568.089 883.341 L 568.089 883.341 L 568.089 883.341 Q 565.824 878.81 565.22 872.996 L 565.22 872.996 L 565.22 872.996 Q 564.616 867.181 564.842 861.14 L 564.842 861.14 L 564.842 861.14 Q 565.069 855.099 565.673 849.209 L 565.673 849.209 L 565.673 849.209 Q 566.277 843.319 566.277 838.486 Z  M 614.606 893.611 L 612.34 834.71 L 612.34 834.71 Q 614.153 834.71 615.436 834.559 L 615.436 834.559 L 615.436 834.559 Q 616.72 834.408 617.626 836.07 L 617.626 836.07 L 617.626 836.07 Q 618.079 842.866 618.684 849.889 L 618.684 849.889 L 618.684 849.889 Q 619.288 856.911 619.892 864.01 L 619.892 864.01 L 619.892 864.01 Q 620.496 871.108 620.722 878.282 L 620.722 878.282 L 620.722 878.282 Q 620.949 885.456 620.798 892.252 L 620.798 892.252 L 620.798 892.252 Q 620.798 893.158 620.345 893.385 L 620.345 893.385 L 620.345 893.385 Q 619.892 893.611 619.061 893.536 L 619.061 893.536 L 619.061 893.536 Q 618.23 893.46 617.098 893.385 L 617.098 893.385 L 617.098 893.385 Q 615.965 893.309 614.606 893.611 L 614.606 893.611 Z  M 603.581 807.676 L 603.581 807.676 L 603.581 807.676 Q 603.581 806.619 603.732 805.335 L 603.732 805.335 L 603.732 805.335 Q 603.883 804.052 604.411 802.995 L 604.411 802.995 L 604.411 802.995 Q 604.94 801.937 605.771 801.182 L 605.771 801.182 L 605.771 801.182 Q 606.601 800.427 607.81 800.427 L 607.81 800.427 L 607.81 800.427 Q 609.622 800.427 611.434 800.578 L 611.434 800.578 L 611.434 800.578 Q 613.247 800.729 614.908 801.258 L 614.908 801.258 L 614.908 801.258 Q 616.569 801.786 617.626 802.919 L 617.626 802.919 L 617.626 802.919 Q 618.684 804.052 618.684 806.166 L 618.684 806.166 L 618.684 806.166 Q 618.684 809.791 615.965 812.585 L 615.965 812.585 L 615.965 812.585 Q 613.247 815.379 609.32 815.379 L 609.32 815.379 L 609.32 815.379 Q 606.299 815.379 604.94 813.038 L 604.94 813.038 L 604.94 813.038 Q 603.581 810.697 603.581 807.676 Z  M 612.34 808.432 L 612.34 808.432 L 612.34 808.432 Q 611.887 808.432 611.887 809.187 L 611.887 809.187 L 611.887 809.187 Q 611.887 809.942 612.34 809.942 L 612.34 809.942 L 612.34 809.942 Q 612.944 809.942 612.944 809.187 L 612.944 809.187 L 612.944 809.187 Q 612.944 808.432 612.34 808.432 Z  M 626.99 834.408 L 626.99 834.408 L 626.99 834.408 Q 628.802 834.408 630.917 835.314 L 630.917 835.314 L 630.917 835.314 Q 633.031 836.221 633.937 838.939 L 633.937 838.939 L 633.937 838.939 Q 635.146 833.804 637.638 830.633 L 637.638 830.633 L 637.638 830.633 Q 640.129 827.461 643.377 826.253 L 643.377 826.253 L 643.377 826.253 Q 646.624 825.045 650.173 825.422 L 650.173 825.422 L 650.173 825.422 Q 653.722 825.8 656.818 827.612 L 656.818 827.612 L 656.818 827.612 Q 659.914 829.424 662.255 832.294 L 662.255 832.294 L 662.255 832.294 Q 664.596 835.163 665.502 838.939 L 665.502 838.939 L 665.502 838.939 Q 667.163 834.257 669.957 830.255 L 669.957 830.255 L 669.957 830.255 Q 672.751 826.253 676.15 823.534 L 676.15 823.534 L 676.15 823.534 Q 679.548 820.816 683.248 819.759 L 683.248 819.759 L 683.248 819.759 Q 686.948 818.701 690.195 819.834 L 690.195 819.834 L 690.195 819.834 Q 693.442 820.967 695.934 824.667 L 695.934 824.667 L 695.934 824.667 Q 698.426 828.367 699.483 835.314 L 699.483 835.314 L 699.483 835.314 Q 699.785 837.278 700.239 841.129 L 700.239 841.129 L 700.239 841.129 Q 700.692 844.98 701.22 849.813 L 701.22 849.813 L 701.22 849.813 Q 701.749 854.646 702.428 860.008 L 702.428 860.008 L 702.428 860.008 Q 703.108 865.369 703.637 870.202 L 703.637 870.202 L 703.637 870.202 Q 704.165 875.035 704.618 878.886 L 704.618 878.886 L 704.618 878.886 Q 705.071 882.737 705.374 884.55 L 705.374 884.55 L 705.374 884.55 Q 705.374 886.06 705.222 887.872 L 705.222 887.872 L 705.222 887.872 Q 705.071 889.684 704.543 890.968 L 704.543 890.968 L 704.543 890.968 Q 704.014 892.252 702.882 892.63 L 702.882 892.63 L 702.882 892.63 Q 701.749 893.007 699.483 891.346 L 699.483 891.346 L 699.483 891.346 Q 699.483 889.533 699.03 885.456 L 699.03 885.456 L 699.03 885.456 Q 698.577 881.378 698.124 876.016 L 698.124 876.016 L 698.124 876.016 Q 697.671 870.655 696.991 864.689 L 696.991 864.689 L 696.991 864.689 Q 696.312 858.724 695.632 853.438 L 695.632 853.438 L 695.632 853.438 Q 694.953 848.152 694.5 844.074 L 694.5 844.074 L 694.5 844.074 Q 694.046 839.996 693.593 838.335 L 693.593 838.335 L 693.593 838.335 Q 691.328 831.388 688.836 828.669 L 688.836 828.669 L 688.836 828.669 Q 686.344 825.951 683.852 826.253 L 683.852 826.253 L 683.852 826.253 Q 681.36 826.555 679.095 829.424 L 679.095 829.424 L 679.095 829.424 Q 676.829 832.294 675.017 836.674 L 675.017 836.674 L 675.017 836.674 Q 673.205 841.054 671.619 846.415 L 671.619 846.415 L 671.619 846.415 Q 670.033 851.776 669.202 857.062 L 669.202 857.062 L 669.202 857.062 Q 668.372 862.348 668.145 867.03 L 668.145 867.03 L 668.145 867.03 Q 667.919 871.712 668.674 874.733 L 668.674 874.733 L 662.784 875.941 L 662.784 875.941 Q 663.237 861.442 661.802 852.154 L 661.802 852.154 L 661.802 852.154 Q 660.367 842.866 657.875 837.882 L 657.875 837.882 L 657.875 837.882 Q 655.383 832.898 652.212 831.916 L 652.212 831.916 L 652.212 831.916 Q 649.04 830.935 645.944 833.2 L 645.944 833.2 L 645.944 833.2 Q 642.848 835.465 640.281 840.751 L 640.281 840.751 L 640.281 840.751 Q 637.713 846.037 636.429 853.513 L 636.429 853.513 L 636.429 853.513 Q 635.146 860.989 635.448 870.353 L 635.448 870.353 L 635.448 870.353 Q 635.75 879.717 638.619 890.44 L 638.619 890.44 L 632.88 890.44 L 632.88 890.44 Q 632.88 890.44 632.503 887.57 L 632.503 887.57 L 632.503 887.57 Q 632.125 884.701 631.596 880.245 L 631.596 880.245 L 631.596 880.245 Q 631.068 875.79 630.464 870.126 L 630.464 870.126 L 630.464 870.126 Q 629.86 864.463 629.255 858.648 L 629.255 858.648 L 629.255 858.648 Q 628.651 852.834 628.047 847.472 L 628.047 847.472 L 628.047 847.472 Q 627.443 842.111 626.99 838.335 L 626.99 838.335 L 626.99 838.335 Q 626.99 837.882 626.99 836.296 L 626.99 836.296 L 626.99 836.296 Q 626.99 834.71 626.99 834.408 Z  M 712.925 857.818 L 712.925 857.818 L 712.925 857.818 Q 712.925 853.287 714.888 847.774 L 714.888 847.774 L 714.888 847.774 Q 716.852 842.262 720.25 837.504 L 720.25 837.504 L 720.25 837.504 Q 723.648 832.747 727.952 829.5 L 727.952 829.5 L 727.952 829.5 Q 732.256 826.253 736.938 826.253 L 736.938 826.253 L 736.938 826.253 Q 739.506 826.253 741.998 827.31 L 741.998 827.31 L 741.998 827.31 Q 744.49 828.367 746.831 830.104 L 746.831 830.104 L 746.831 830.104 Q 749.172 831.841 751.059 834.031 L 751.059 834.031 L 751.059 834.031 Q 752.947 836.221 754.004 838.637 L 754.004 838.637 L 754.004 838.637 Q 755.062 841.054 755.137 843.319 L 755.137 843.319 L 755.137 843.319 Q 755.213 845.584 753.853 847.246 L 753.853 847.246 L 721.987 853.136 L 721.987 853.136 Q 721.382 853.287 720.929 854.571 L 720.929 854.571 L 720.929 854.571 Q 720.476 855.854 720.174 857.818 L 720.174 857.818 L 720.174 857.818 Q 719.872 859.781 719.646 862.122 L 719.646 862.122 L 719.646 862.122 Q 719.419 864.463 719.268 866.653 L 719.268 866.653 L 719.268 866.653 Q 719.117 868.843 719.117 870.579 L 719.117 870.579 L 719.117 870.579 Q 719.117 872.316 719.117 873.222 L 719.117 873.222 L 719.117 873.222 Q 719.117 877.451 721.156 880.094 L 721.156 880.094 L 721.156 880.094 Q 723.195 882.737 726.366 884.096 L 726.366 884.096 L 726.366 884.096 Q 729.538 885.456 733.54 885.909 L 733.54 885.909 L 733.54 885.909 Q 737.542 886.362 741.469 886.362 L 741.469 886.362 L 741.469 886.362 Q 745.396 886.362 748.87 886.06 L 748.87 886.06 L 748.87 886.06 Q 752.343 885.758 754.609 885.758 L 754.609 885.758 L 754.609 885.758 Q 754.609 886.362 754.155 887.117 L 754.155 887.117 L 754.155 887.117 Q 753.702 887.872 753.098 888.552 L 753.098 888.552 L 753.098 888.552 Q 752.494 889.231 751.89 889.76 L 751.89 889.76 L 751.89 889.76 Q 751.286 890.289 751.135 890.44 L 751.135 890.44 L 751.135 890.44 Q 749.927 890.742 747.435 891.27 L 747.435 891.27 L 747.435 891.27 Q 744.943 891.799 742.149 892.252 L 742.149 892.252 L 742.149 892.252 Q 739.355 892.705 736.938 893.007 L 736.938 893.007 L 736.938 893.007 Q 734.522 893.309 733.616 893.309 L 733.616 893.309 L 733.616 893.309 Q 728.934 894.215 725.46 893.158 L 725.46 893.158 L 725.46 893.158 Q 721.987 892.101 719.57 889.533 L 719.57 889.533 L 719.57 889.533 Q 717.154 886.966 715.643 883.266 L 715.643 883.266 L 715.643 883.266 Q 714.133 879.566 713.378 875.337 L 713.378 875.337 L 713.378 875.337 Q 712.623 871.108 712.547 866.577 L 712.547 866.577 L 712.547 866.577 Q 712.472 862.046 712.925 857.818 Z  M 734.824 831.992 L 734.824 831.992 L 734.824 831.992 Q 733.465 831.992 731.275 833.427 L 731.275 833.427 L 731.275 833.427 Q 729.085 834.861 727.197 837.051 L 727.197 837.051 L 727.197 837.051 Q 725.309 839.241 724.025 841.733 L 724.025 841.733 L 724.025 841.733 Q 722.742 844.225 723.195 846.037 L 723.195 846.037 L 723.195 846.037 Q 727.122 846.491 731.35 845.886 L 731.35 845.886 L 731.35 845.886 Q 735.579 845.282 739.053 843.999 L 739.053 843.999 L 739.053 843.999 Q 742.526 842.715 744.792 840.978 L 744.792 840.978 L 744.792 840.978 Q 747.057 839.241 746.982 837.429 L 746.982 837.429 L 746.982 837.429 Q 746.906 835.617 744.112 834.182 L 744.112 834.182 L 744.112 834.182 Q 741.318 832.747 734.824 831.992 Z  M 265.127 892.554 L 265.127 892.554 L 265.127 892.554 Q 266.487 882.888 266.94 876.545 L 266.94 876.545 L 266.94 876.545 Q 267.393 870.202 267.317 865.596 L 267.317 865.596 L 267.317 865.596 Q 267.242 860.989 267.091 857.44 L 267.091 857.44 L 267.091 857.44 Q 266.94 853.891 267.091 849.964 L 267.091 849.964 L 267.091 849.964 Q 265.127 849.964 262.862 850.87 L 262.862 850.87 L 262.862 850.87 Q 260.597 851.776 258.18 852.909 L 258.18 852.909 L 258.18 852.909 Q 255.764 854.042 253.423 854.948 L 253.423 854.948 L 253.423 854.948 Q 251.082 855.854 249.119 855.854 L 249.119 855.854 L 249.119 855.854 Q 248.363 855.854 248.137 855.25 L 248.137 855.25 L 248.137 855.25 Q 247.91 854.646 247.759 853.74 L 247.759 853.74 L 247.759 853.74 Q 247.608 852.834 247.533 851.852 L 247.533 851.852 L 247.533 851.852 Q 247.457 850.87 247.004 849.813 L 247.004 849.813 L 267.393 841.054 L 267.393 841.054 Q 264.523 818.399 265.354 803.221 L 265.354 803.221 L 265.354 803.221 Q 266.185 788.043 269.734 778.755 L 269.734 778.755 L 269.734 778.755 Q 273.283 769.466 279.098 765.162 L 279.098 765.162 L 279.098 765.162 Q 284.912 760.858 292.01 759.801 L 292.01 759.801 L 292.01 759.801 Q 297.598 759.801 302.658 761.99 L 302.658 761.99 L 302.658 761.99 Q 307.717 764.18 311.569 767.956 L 311.569 767.956 L 311.569 767.956 Q 315.42 771.732 317.761 776.716 L 317.761 776.716 L 317.761 776.716 Q 320.102 781.7 320.102 787.288 L 320.102 787.288 L 320.102 787.288 Q 317.685 787.288 315.646 785.702 L 315.646 785.702 L 315.646 785.702 Q 313.607 784.116 311.795 781.7 L 311.795 781.7 L 311.795 781.7 Q 309.983 779.283 308.17 776.489 L 308.17 776.489 L 308.17 776.489 Q 306.358 773.695 304.168 771.279 L 304.168 771.279 L 304.168 771.279 Q 301.978 768.862 299.411 767.276 L 299.411 767.276 L 299.411 767.276 Q 296.843 765.691 293.37 765.691 L 293.37 765.691 L 293.37 765.691 Q 290.349 766.295 287.404 768.183 L 287.404 768.183 L 287.404 768.183 Q 284.459 770.07 281.967 773.544 L 281.967 773.544 L 281.967 773.544 Q 279.475 777.018 277.512 782.379 L 277.512 782.379 L 277.512 782.379 Q 275.548 787.741 274.491 795.594 L 274.491 795.594 L 274.491 795.594 Q 273.434 803.448 273.358 814.095 L 273.358 814.095 L 273.358 814.095 Q 273.283 824.743 274.642 838.486 L 274.642 838.486 L 293.37 838.335 L 293.37 838.335 Q 293.823 840.298 293.898 841.733 L 293.898 841.733 L 293.898 841.733 Q 293.974 843.168 291.708 844.074 L 291.708 844.074 L 291.708 844.074 Q 290.047 844.678 287.48 845.207 L 287.48 845.207 L 287.48 845.207 Q 284.912 845.735 282.269 846.113 L 282.269 846.113 L 282.269 846.113 Q 279.626 846.491 277.361 846.717 L 277.361 846.717 L 277.361 846.717 Q 275.095 846.944 274.189 847.095 L 274.189 847.095 L 274.189 847.095 Q 274.038 854.193 274.34 860.612 L 274.34 860.612 L 274.34 860.612 Q 274.642 867.03 274.793 872.845 L 274.793 872.845 L 274.793 872.845 Q 274.944 878.659 274.718 883.719 L 274.718 883.719 L 274.718 883.719 Q 274.491 888.778 273.132 893.46 L 273.132 893.46 L 273.132 893.46 Q 272.981 893.46 272.301 893.46 L 272.301 893.46 L 272.301 893.46 Q 271.622 893.46 270.867 893.46 L 270.867 893.46 L 270.867 893.46 Q 270.111 893.46 269.432 893.46 L 269.432 893.46 L 269.432 893.46 Q 268.752 893.46 268.752 893.46 L 268.752 893.46 L 268.752 893.46 Q 268.148 893.46 267.468 893.611 L 267.468 893.611 L 267.468 893.611 Q 266.789 893.762 266.26 893.838 L 266.26 893.838 L 266.26 893.838 Q 265.732 893.913 265.43 893.687 L 265.43 893.687 L 265.43 893.687 Q 265.127 893.46 265.127 892.554 Z  M 314.211 893.611 L 311.946 834.71 L 311.946 834.71 Q 313.758 834.71 315.042 834.559 L 315.042 834.559 L 315.042 834.559 Q 316.326 834.408 317.232 836.07 L 317.232 836.07 L 317.232 836.07 Q 317.685 842.866 318.289 849.889 L 318.289 849.889 L 318.289 849.889 Q 318.893 856.911 319.497 864.01 L 319.497 864.01 L 319.497 864.01 Q 320.102 871.108 320.328 878.282 L 320.328 878.282 L 320.328 878.282 Q 320.555 885.456 320.404 892.252 L 320.404 892.252 L 320.404 892.252 Q 320.404 893.158 319.951 893.385 L 319.951 893.385 L 319.951 893.385 Q 319.497 893.611 318.667 893.536 L 318.667 893.536 L 318.667 893.536 Q 317.836 893.46 316.703 893.385 L 316.703 893.385 L 316.703 893.385 Q 315.571 893.309 314.211 893.611 L 314.211 893.611 Z  M 303.186 807.676 L 303.186 807.676 L 303.186 807.676 Q 303.186 806.619 303.337 805.335 L 303.337 805.335 L 303.337 805.335 Q 303.489 804.052 304.017 802.995 L 304.017 802.995 L 304.017 802.995 Q 304.546 801.937 305.376 801.182 L 305.376 801.182 L 305.376 801.182 Q 306.207 800.427 307.415 800.427 L 307.415 800.427 L 307.415 800.427 Q 309.228 800.427 311.04 800.578 L 311.04 800.578 L 311.04 800.578 Q 312.852 800.729 314.514 801.258 L 314.514 801.258 L 314.514 801.258 Q 316.175 801.786 317.232 802.919 L 317.232 802.919 L 317.232 802.919 Q 318.289 804.052 318.289 806.166 L 318.289 806.166 L 318.289 806.166 Q 318.289 809.791 315.571 812.585 L 315.571 812.585 L 315.571 812.585 Q 312.852 815.379 308.926 815.379 L 308.926 815.379 L 308.926 815.379 Q 305.905 815.379 304.546 813.038 L 304.546 813.038 L 304.546 813.038 Q 303.186 810.697 303.186 807.676 Z  M 311.946 808.432 L 311.946 808.432 L 311.946 808.432 Q 311.493 808.432 311.493 809.187 L 311.493 809.187 L 311.493 809.187 Q 311.493 809.942 311.946 809.942 L 311.946 809.942 L 311.946 809.942 Q 312.55 809.942 312.55 809.187 L 312.55 809.187 L 312.55 809.187 Q 312.55 808.432 311.946 808.432 Z  M 325.69 834.408 L 325.69 834.408 L 325.69 834.408 Q 327.502 833.653 328.861 834.106 L 328.861 834.106 L 328.861 834.106 Q 330.22 834.559 331.127 835.768 L 331.127 835.768 L 331.127 835.768 Q 332.033 836.976 332.486 838.562 L 332.486 838.562 L 332.486 838.562 Q 332.939 840.147 333.241 841.658 L 333.241 841.658 L 333.241 841.658 Q 335.204 838.335 338.905 836.296 L 338.905 836.296 L 338.905 836.296 Q 342.605 834.257 346.833 833.578 L 346.833 833.578 L 346.833 833.578 Q 351.062 832.898 355.291 833.276 L 355.291 833.276 L 355.291 833.276 Q 359.52 833.653 362.465 835.088 L 362.465 835.088 L 362.465 835.088 Q 365.41 836.523 366.618 839.015 L 366.618 839.015 L 366.618 839.015 Q 367.826 841.507 366.014 844.829 L 366.014 844.829 L 366.014 844.829 Q 362.087 842.564 357.783 841.205 L 357.783 841.205 L 357.783 841.205 Q 353.479 839.845 349.401 840.298 L 349.401 840.298 L 349.401 840.298 Q 345.323 840.751 341.85 843.394 L 341.85 843.394 L 341.85 843.394 Q 338.376 846.037 336.111 851.776 L 336.111 851.776 L 336.111 851.776 Q 333.845 857.516 333.317 866.955 L 333.317 866.955 L 333.317 866.955 Q 332.788 876.394 334.6 890.44 L 334.6 890.44 L 328.861 890.44 L 328.861 890.44 Q 328.861 890.44 328.635 887.948 L 328.635 887.948 L 328.635 887.948 Q 328.408 885.456 328.182 881.378 L 328.182 881.378 L 328.182 881.378 Q 327.955 877.3 327.577 872.316 L 327.577 872.316 L 327.577 872.316 Q 327.2 867.332 326.898 862.197 L 326.898 862.197 L 326.898 862.197 Q 326.596 857.062 326.369 852.305 L 326.369 852.305 L 326.369 852.305 Q 326.143 847.548 325.841 844.074 L 325.841 844.074 L 325.841 844.074 Q 325.841 843.621 325.765 842.262 L 325.765 842.262 L 325.765 842.262 Q 325.69 840.902 325.69 839.317 L 325.69 839.317 L 325.69 839.317 Q 325.69 837.731 325.69 836.372 L 325.69 836.372 L 325.69 836.372 Q 325.69 835.012 325.69 834.408 Z  M 380.815 881.076 L 380.815 881.076 L 380.815 881.076 Q 383.533 881.076 385.874 882.133 L 385.874 882.133 L 385.874 882.133 Q 388.215 883.19 390.481 884.474 L 390.481 884.474 L 390.481 884.474 Q 392.746 885.758 395.087 886.739 L 395.087 886.739 L 395.087 886.739 Q 397.428 887.721 400.146 887.721 L 400.146 887.721 L 400.146 887.721 Q 403.318 887.721 406.716 886.588 L 406.716 886.588 L 406.716 886.588 Q 410.114 885.456 412.984 883.417 L 412.984 883.417 L 412.984 883.417 Q 415.853 881.378 417.666 878.433 L 417.666 878.433 L 417.666 878.433 Q 419.478 875.488 419.478 872.014 L 419.478 872.014 L 419.478 872.014 Q 419.629 870.957 419.553 869.447 L 419.553 869.447 L 419.553 869.447 Q 419.478 867.936 418.572 866.351 L 418.572 866.351 L 418.572 866.351 Q 417.666 864.765 415.551 863.33 L 415.551 863.33 L 415.551 863.33 Q 413.437 861.895 409.435 861.14 L 409.435 861.14 L 409.435 861.14 Q 405.432 860.385 399.391 860.31 L 399.391 860.31 L 399.391 860.31 Q 393.35 860.234 384.439 861.442 L 384.439 861.442 L 384.439 861.442 Q 382.174 861.442 380.06 860.159 L 380.06 860.159 L 380.06 860.159 Q 377.945 858.875 376.284 856.987 L 376.284 856.987 L 376.284 856.987 Q 374.623 855.099 373.565 852.909 L 373.565 852.909 L 373.565 852.909 Q 372.508 850.719 372.508 848.756 L 372.508 848.756 L 372.508 848.756 Q 372.508 842.866 375 839.166 L 375 839.166 L 375 839.166 Q 377.492 835.465 381.419 833.276 L 381.419 833.276 L 381.419 833.276 Q 385.346 831.086 390.178 830.18 L 390.178 830.18 L 390.178 830.18 Q 395.011 829.273 399.995 829.273 L 399.995 829.273 L 399.995 829.273 Q 402.261 829.273 405.206 829.5 L 405.206 829.5 L 405.206 829.5 Q 408.151 829.726 410.643 830.708 L 410.643 830.708 L 410.643 830.708 Q 413.135 831.69 414.872 833.804 L 414.872 833.804 L 414.872 833.804 Q 416.608 835.919 416.608 839.694 L 416.608 839.694 L 416.608 839.694 Q 416.306 842.262 415.778 842.79 L 415.778 842.79 L 415.778 842.79 Q 415.249 843.319 414.267 842.488 L 414.267 842.488 L 414.267 842.488 Q 413.286 841.658 411.926 840.147 L 411.926 840.147 L 411.926 840.147 Q 410.567 838.637 408.679 837.202 L 408.679 837.202 L 408.679 837.202 Q 406.792 835.768 404.149 835.012 L 404.149 835.012 L 404.149 835.012 Q 401.506 834.257 398.183 835.012 L 398.183 835.012 L 398.183 835.012 Q 394.709 835.012 391.236 835.692 L 391.236 835.692 L 391.236 835.692 Q 387.762 836.372 384.968 838.033 L 384.968 838.033 L 384.968 838.033 Q 382.174 839.694 380.437 842.564 L 380.437 842.564 L 380.437 842.564 Q 378.7 845.433 378.7 849.813 L 378.7 849.813 L 378.7 849.813 Q 378.7 852.079 380.739 852.909 L 380.739 852.909 L 380.739 852.909 Q 382.778 853.74 386.176 853.74 L 386.176 853.74 L 386.176 853.74 Q 389.574 853.74 393.879 853.513 L 393.879 853.513 L 393.879 853.513 Q 398.183 853.287 402.714 853.287 L 402.714 853.287 L 402.714 853.287 Q 407.245 853.287 411.473 853.966 L 411.473 853.966 L 411.473 853.966 Q 415.702 854.646 418.949 856.685 L 418.949 856.685 L 418.949 856.685 Q 422.196 858.724 424.009 862.499 L 424.009 862.499 L 424.009 862.499 Q 425.821 866.275 425.368 872.316 L 425.368 872.316 L 425.368 872.316 Q 425.368 876.696 422.876 880.623 L 422.876 880.623 L 422.876 880.623 Q 420.384 884.55 416.533 887.495 L 416.533 887.495 L 416.533 887.495 Q 412.682 890.44 408 892.101 L 408 892.101 L 408 892.101 Q 403.318 893.762 398.938 893.309 L 398.938 893.309 L 398.938 893.309 Q 397.126 893.158 394.03 892.327 L 394.03 892.327 L 394.03 892.327 Q 390.934 891.497 387.989 889.987 L 387.989 889.987 L 387.989 889.987 Q 385.044 888.476 382.929 886.286 L 382.929 886.286 L 382.929 886.286 Q 380.815 884.096 380.815 881.076 Z  M 450.892 838.486 L 450.892 838.486 L 450.892 838.486 Q 449.532 838.033 447.191 838.108 L 447.191 838.108 L 447.191 838.108 Q 444.851 838.184 442.208 838.411 L 442.208 838.411 L 442.208 838.411 Q 439.565 838.637 437.148 838.939 L 437.148 838.939 L 437.148 838.939 Q 434.732 839.241 433.07 839.241 L 433.07 839.241 L 433.07 839.241 Q 432.315 839.241 432.089 837.051 L 432.089 837.051 L 432.089 837.051 Q 431.862 834.861 431.409 831.086 L 431.409 831.086 L 452.704 829.575 L 452.704 829.575 Q 453.157 824.289 453.308 822.024 L 453.308 822.024 L 453.308 822.024 Q 453.459 819.759 453.384 818.173 L 453.384 818.173 L 453.384 818.173 Q 453.308 816.587 453.233 814.548 L 453.233 814.548 L 453.233 814.548 Q 453.157 812.509 453.157 808.129 L 453.157 808.129 L 453.157 808.129 Q 457.084 807.525 459.123 807.752 L 459.123 807.752 L 459.123 807.752 Q 461.162 807.978 461.917 808.885 L 461.917 808.885 L 461.917 808.885 Q 462.672 809.791 462.596 811.528 L 462.596 811.528 L 462.596 811.528 Q 462.521 813.264 462.143 815.832 L 462.143 815.832 L 462.143 815.832 Q 461.766 818.399 461.539 822.024 L 461.539 822.024 L 461.539 822.024 Q 461.313 825.649 461.766 830.18 L 461.766 830.18 L 479.889 829.575 L 479.889 836.976 L 479.889 836.976 Q 478.681 836.976 476.113 837.127 L 476.113 837.127 L 476.113 837.127 Q 473.546 837.278 470.601 837.429 L 470.601 837.429 L 470.601 837.429 Q 467.656 837.58 465.164 837.731 L 465.164 837.731 L 465.164 837.731 Q 462.672 837.882 461.464 838.335 L 461.464 838.335 L 461.464 838.335 Q 460.255 843.772 458.896 849.964 L 458.896 849.964 L 458.896 849.964 Q 457.537 856.156 457.084 862.197 L 457.084 862.197 L 457.084 862.197 Q 456.631 868.239 457.386 873.449 L 457.386 873.449 L 457.386 873.449 Q 458.141 878.659 461.162 882.058 L 461.162 882.058 L 461.162 882.058 Q 464.182 885.456 469.77 886.739 L 469.77 886.739 L 469.77 886.739 Q 475.358 888.023 484.571 885.909 L 484.571 885.909 L 484.571 885.909 Q 484.269 888.174 482.834 889.609 L 482.834 889.609 L 482.834 889.609 Q 481.399 891.044 479.511 891.874 L 479.511 891.874 L 479.511 891.874 Q 477.624 892.705 475.509 893.083 L 475.509 893.083 L 475.509 893.083 Q 473.395 893.46 471.733 893.46 L 471.733 893.46 L 471.733 893.46 Q 464.031 893.46 459.5 890.666 L 459.5 890.666 L 459.5 890.666 Q 454.969 887.872 452.704 883.341 L 452.704 883.341 L 452.704 883.341 Q 450.439 878.81 449.834 872.996 L 449.834 872.996 L 449.834 872.996 Q 449.23 867.181 449.457 861.14 L 449.457 861.14 L 449.457 861.14 Q 449.683 855.099 450.288 849.209 L 450.288 849.209 L 450.288 849.209 Q 450.892 843.319 450.892 838.486 Z  M 154.575 799.219 L 154.575 799.219 L 154.575 799.219 Q 160.163 799.219 164.316 802.466 L 164.316 802.466 L 164.316 802.466 Q 168.47 805.713 171.566 811.15 L 171.566 811.15 L 171.566 811.15 Q 174.662 816.587 176.776 823.685 L 176.776 823.685 L 176.776 823.685 Q 178.891 830.784 180.25 838.562 L 180.25 838.562 L 180.25 838.562 Q 181.609 846.339 182.364 854.268 L 182.364 854.268 L 182.364 854.268 Q 183.119 862.197 183.421 869.145 L 183.421 869.145 L 183.421 869.145 Q 183.723 876.092 183.799 881.68 L 183.799 881.68 L 183.799 881.68 Q 183.874 887.268 183.874 890.44 L 183.874 890.44 L 180.25 890.44 L 174.511 858.573 L 174.511 858.573 Q 173.756 857.818 171.113 857.667 L 171.113 857.667 L 171.113 857.667 Q 168.47 857.516 164.921 857.818 L 164.921 857.818 L 164.921 857.818 Q 161.371 858.12 157.218 858.648 L 157.218 858.648 L 157.218 858.648 Q 153.065 859.177 149.365 859.403 L 149.365 859.403 L 149.365 859.403 Q 145.664 859.63 142.644 859.554 L 142.644 859.554 L 142.644 859.554 Q 139.623 859.479 138.264 858.573 L 138.264 858.573 L 138.264 890.44 L 130.562 890.44 L 130.562 890.44 Q 130.562 889.987 130.637 888.703 L 130.637 888.703 L 130.637 888.703 Q 130.713 887.419 130.713 886.06 L 130.713 886.06 L 130.713 886.06 Q 130.713 884.701 130.864 883.492 L 130.864 883.492 L 130.864 883.492 Q 131.015 882.284 131.015 881.831 L 131.015 881.831 L 131.015 881.831 Q 131.921 873.071 132.45 864.085 L 132.45 864.085 L 132.45 864.085 Q 132.978 855.099 133.733 846.642 L 133.733 846.642 L 133.733 846.642 Q 134.488 838.184 135.772 830.482 L 135.772 830.482 L 135.772 830.482 Q 137.056 822.779 139.472 816.512 L 139.472 816.512 L 139.472 816.512 Q 141.889 810.244 145.513 805.789 L 145.513 805.789 L 145.513 805.789 Q 149.138 801.333 154.575 799.219 Z  M 156.992 806.166 L 156.992 806.166 L 156.992 806.166 Q 153.065 806.166 150.422 808.96 L 150.422 808.96 L 150.422 808.96 Q 147.779 811.754 146.118 816.209 L 146.118 816.209 L 146.118 816.209 Q 144.456 820.665 143.55 826.102 L 143.55 826.102 L 143.55 826.102 Q 142.644 831.539 142.342 836.749 L 142.342 836.749 L 142.342 836.749 Q 142.04 841.96 141.964 846.415 L 141.964 846.415 L 141.964 846.415 Q 141.889 850.87 141.889 853.287 L 141.889 853.287 L 141.889 853.287 Q 149.289 853.287 156.992 852.154 L 156.992 852.154 L 156.992 852.154 Q 164.694 851.021 171.49 849.813 L 171.49 849.813 L 171.49 849.813 Q 171.641 849.209 171.717 847.85 L 171.717 847.85 L 171.717 847.85 Q 171.792 846.491 171.868 844.829 L 171.868 844.829 L 171.868 844.829 Q 171.943 843.168 172.019 841.658 L 172.019 841.658 L 172.019 841.658 Q 172.094 840.147 172.094 839.694 L 172.094 839.694 L 172.094 839.694 Q 172.094 834.71 171.566 830.18 L 171.566 830.18 L 171.566 830.18 Q 171.037 825.649 169.451 821.344 L 169.451 821.344 L 169.451 821.344 Q 167.866 817.04 164.921 813.264 L 164.921 813.264 L 164.921 813.264 Q 161.975 809.489 156.992 806.166 Z " fill="rgb(255,255,255)"/><g><g><path d=" M 353.07 694.175 L 353.07 560.983 L 450.131 560.983 L 450.131 580.024 L 372.111 580.024 L 372.111 618.105 L 438.707 618.105 L 438.707 637.146 L 372.111 637.146 L 372.111 694.175 L 353.07 694.175 Z  M 475.766 595.257 L 494.064 595.257 L 494.064 694.175 L 475.766 694.175 L 475.766 595.257 Z  M 474.838 576.216 L 474.838 557.175 L 494.993 557.175 L 494.993 576.216 L 474.838 576.216 Z  M 581.373 613.554 L 543.663 613.554 L 543.663 694.175 L 525.458 694.175 L 525.458 595.257 L 543.663 595.257 L 543.663 612.718 L 543.663 612.718 Q 543.848 609.096 545.335 605.892 L 545.335 605.892 L 545.335 605.892 Q 546.821 602.687 549.282 600.319 L 549.282 600.319 L 549.282 600.319 Q 551.743 597.95 554.994 596.603 L 554.994 596.603 L 554.994 596.603 Q 558.245 595.257 561.96 595.257 L 561.96 595.257 L 581.373 595.257 L 581.373 595.257 Q 585.181 595.257 588.478 596.696 L 588.478 596.696 L 588.478 596.696 Q 591.775 598.136 594.283 600.597 L 594.283 600.597 L 594.283 600.597 Q 596.791 603.059 598.23 606.402 L 598.23 606.402 L 598.23 606.402 Q 599.67 609.746 599.67 613.554 L 599.67 613.554 L 599.67 630.273 L 581.373 630.273 L 581.373 613.554 Z  M 620.476 675.878 L 682.149 675.878 L 682.149 652.936 L 638.773 652.936 L 638.773 652.936 Q 634.965 652.936 631.621 651.496 L 631.621 651.496 L 631.621 651.496 Q 628.278 650.057 625.816 647.595 L 625.816 647.595 L 625.816 647.595 Q 623.355 645.134 621.915 641.79 L 621.915 641.79 L 621.915 641.79 Q 620.476 638.446 620.476 634.638 L 620.476 634.638 L 620.476 613.554 L 620.476 613.554 Q 620.476 609.746 621.915 606.402 L 621.915 606.402 L 621.915 606.402 Q 623.355 603.059 625.816 600.597 L 625.816 600.597 L 625.816 600.597 Q 628.278 598.136 631.621 596.696 L 631.621 596.696 L 631.621 596.696 Q 634.965 595.257 638.773 595.257 L 638.773 595.257 L 696.638 595.257 L 696.638 613.554 L 638.773 613.554 L 638.773 634.638 L 682.149 634.638 L 682.149 634.638 Q 685.957 634.638 689.254 636.078 L 689.254 636.078 L 689.254 636.078 Q 692.551 637.518 695.059 639.979 L 695.059 639.979 L 695.059 639.979 Q 697.567 642.44 699.007 645.784 L 699.007 645.784 L 699.007 645.784 Q 700.446 649.128 700.446 652.936 L 700.446 652.936 L 700.446 675.878 L 700.446 675.878 Q 700.446 679.686 699.007 683.029 L 699.007 683.029 L 699.007 683.029 Q 697.567 686.373 695.059 688.835 L 695.059 688.835 L 695.059 688.835 Q 692.551 691.296 689.254 692.736 L 689.254 692.736 L 689.254 692.736 Q 685.957 694.175 682.149 694.175 L 682.149 694.175 L 620.476 694.175 L 620.476 675.878 Z  M 723.202 613.554 L 723.202 595.257 L 747.351 595.257 L 747.351 564.792 L 765.649 564.792 L 765.649 595.257 L 798.158 595.257 L 798.158 613.554 L 765.649 613.554 L 765.649 675.878 L 798.158 675.878 L 798.158 694.175 L 765.649 694.175 L 765.649 694.175 Q 761.934 694.175 758.59 692.736 L 758.59 692.736 L 758.59 692.736 Q 755.246 691.296 752.739 688.835 L 752.739 688.835 L 752.739 688.835 Q 750.231 686.373 748.791 683.029 L 748.791 683.029 L 748.791 683.029 Q 747.351 679.686 747.351 675.878 L 747.351 675.878 L 747.351 613.554 L 723.202 613.554 Z  M 935.715 593.399 L 935.715 608.539 L 935.715 608.539 Q 935.715 636.403 911.937 640.304 L 911.937 640.304 L 937.015 694.175 L 915.931 694.175 L 891.225 640.954 L 849.521 640.954 L 849.521 694.175 L 830.48 694.175 L 830.48 560.983 L 903.392 560.983 L 903.392 560.983 Q 935.715 560.983 935.715 593.399 L 935.715 593.399 Z  M 849.521 580.024 L 849.521 621.914 L 902.371 621.914 L 902.371 621.914 Q 909.987 621.914 913.331 618.57 L 913.331 618.57 L 913.331 618.57 Q 916.674 615.226 916.674 607.61 L 916.674 607.61 L 916.674 594.328 L 916.674 594.328 Q 916.674 586.712 913.331 583.368 L 913.331 583.368 L 913.331 583.368 Q 909.987 580.024 902.371 580.024 L 902.371 580.024 L 849.521 580.024 Z  M 1049.309 613.554 L 1049.309 654.05 L 983.827 654.05 L 983.827 675.878 L 1049.309 675.878 L 1049.309 694.175 L 983.827 694.175 L 983.827 694.175 Q 980.112 694.175 976.769 692.736 L 976.769 692.736 L 976.769 692.736 Q 973.425 691.296 970.963 688.835 L 970.963 688.835 L 970.963 688.835 Q 968.502 686.373 967.062 683.029 L 967.062 683.029 L 967.062 683.029 Q 965.623 679.686 965.623 675.878 L 965.623 675.878 L 965.623 613.554 L 965.623 613.554 Q 965.623 609.746 967.062 606.402 L 967.062 606.402 L 967.062 606.402 Q 968.502 603.059 970.963 600.597 L 970.963 600.597 L 970.963 600.597 Q 973.425 598.136 976.769 596.696 L 976.769 596.696 L 976.769 596.696 Q 980.112 595.257 983.827 595.257 L 983.827 595.257 L 1031.011 595.257 L 1031.011 595.257 Q 1034.819 595.257 1038.163 596.696 L 1038.163 596.696 L 1038.163 596.696 Q 1041.507 598.136 1043.968 600.597 L 1043.968 600.597 L 1043.968 600.597 Q 1046.43 603.059 1047.869 606.402 L 1047.869 606.402 L 1047.869 606.402 Q 1049.309 609.746 1049.309 613.554 L 1049.309 613.554 Z  M 1031.011 613.554 L 983.827 613.554 L 983.827 635.753 L 1031.011 635.753 L 1031.011 613.554 Z  M 1167.268 613.554 L 1167.268 694.175 L 1148.971 694.175 L 1148.971 613.554 L 1097.979 613.554 L 1097.979 694.175 L 1079.774 694.175 L 1079.774 595.257 L 1097.979 595.257 L 1097.979 612.718 L 1097.979 612.718 Q 1098.164 609.096 1099.651 605.892 L 1099.651 605.892 L 1099.651 605.892 Q 1101.137 602.687 1103.598 600.319 L 1103.598 600.319 L 1103.598 600.319 Q 1106.059 597.95 1109.31 596.603 L 1109.31 596.603 L 1109.31 596.603 Q 1112.561 595.257 1116.276 595.257 L 1116.276 595.257 L 1148.971 595.257 L 1148.971 595.257 Q 1152.779 595.257 1156.122 596.696 L 1156.122 596.696 L 1156.122 596.696 Q 1159.466 598.136 1161.927 600.597 L 1161.927 600.597 L 1161.927 600.597 Q 1164.389 603.059 1165.829 606.402 L 1165.829 606.402 L 1165.829 606.402 Q 1167.268 609.746 1167.268 613.554 L 1167.268 613.554 Z  M 1191.975 613.554 L 1191.975 595.257 L 1216.124 595.257 L 1216.124 564.792 L 1234.421 564.792 L 1234.421 595.257 L 1266.93 595.257 L 1266.93 613.554 L 1234.421 613.554 L 1234.421 675.878 L 1266.93 675.878 L 1266.93 694.175 L 1234.421 694.175 L 1234.421 694.175 Q 1230.706 694.175 1227.362 692.736 L 1227.362 692.736 L 1227.362 692.736 Q 1224.019 691.296 1221.511 688.835 L 1221.511 688.835 L 1221.511 688.835 Q 1219.003 686.373 1217.563 683.029 L 1217.563 683.029 L 1217.563 683.029 Q 1216.124 679.686 1216.124 675.878 L 1216.124 675.878 L 1216.124 613.554 L 1191.975 613.554 Z " fill="rgb(255,255,255)"/></g><path d=" M 934.167 395.515 L 934.167 339.281 L 810.848 212.633 L 685.837 339.317 L 685.837 415.183 L 685.837 421.716 C 686.953 421.913 688.068 422.075 689.202 422.165 C 691.973 422.399 694.762 422.525 697.534 422.507 C 704.084 422.471 710.634 422.075 717.13 421.338 C 725.678 420.402 734.189 419.124 742.647 417.469 C 752.886 415.507 763.035 413.15 773.094 410.415 C 784.737 407.266 796.254 403.685 807.626 399.69 C 814.555 397.26 821.591 395.173 828.734 393.446 C 835.609 391.772 842.555 390.458 849.573 389.487 C 856.447 388.551 863.375 387.957 870.303 387.723 C 877.249 387.489 884.195 387.615 891.123 388.083 C 898.195 388.569 905.231 389.415 912.195 390.602 C 919.447 391.844 926.627 393.446 933.717 395.407 C 933.879 395.443 934.023 395.479 934.167 395.515 L 934.167 395.515 Z  M 934.167 416.137 C 932.277 415.561 930.388 415.003 928.48 414.482 C 922.02 412.718 915.452 411.243 908.848 410.109 C 902.532 409.029 896.161 408.273 889.773 407.823 C 883.529 407.41 877.249 407.302 870.969 407.5 C 864.706 407.716 858.462 408.255 852.254 409.101 C 845.92 409.965 839.621 411.171 833.413 412.682 C 826.917 414.266 820.493 416.155 814.177 418.368 C 802.354 422.525 790.369 426.232 778.277 429.525 C 767.75 432.369 757.115 434.834 746.408 436.903 C 737.446 438.649 728.395 440.016 719.325 441.024 C 712.127 441.834 704.894 442.266 697.642 442.302 C 694.277 442.32 690.894 442.176 687.528 441.888 C 684.721 441.654 681.95 441.204 679.215 440.538 C 677.973 440.232 676.732 439.836 675.526 439.369 C 674.248 438.865 673.043 438.235 671.909 437.479 C 670.415 436.489 669.138 435.23 668.13 433.772 C 666.798 431.811 666.079 429.525 666.043 427.15 C 666.043 427.114 666.043 427.06 666.043 427.024 L 666.043 415.183 L 666.043 331.183 L 810.956 184.345 L 953.961 331.219 L 953.961 401.939 C 954.627 402.191 955.275 402.443 955.94 402.695 C 958.892 403.829 961.843 404.998 964.758 406.24 L 964.758 321.286 L 810.866 164.011 L 652.384 324.219 C 650.531 326.073 648.03 327.134 645.402 327.152 C 642.775 327.17 640.256 326.145 638.384 324.291 C 636.531 322.438 635.469 319.936 635.451 317.309 C 635.433 314.682 636.459 312.163 638.312 310.291 L 810.938 135.794 L 984.552 313.224 L 984.552 421.626 C 984.552 425.045 982.789 428.212 979.892 430.029 C 976.995 431.829 973.36 432.009 970.3 430.515 C 964.938 427.888 959.485 425.44 953.961 423.191 L 953.961 457.615 C 953.961 461.25 951.964 464.597 948.761 466.325 C 945.575 468.052 941.671 467.89 938.647 465.893 C 934.85 463.41 930.82 461.268 926.645 459.505 C 922.02 457.579 917.251 456.032 912.375 454.898 C 906.724 453.567 900.966 452.721 895.19 452.361 C 887.992 451.929 880.758 451.983 873.578 452.523 C 870.663 452.757 867.765 453.045 864.868 453.405 C 861.701 453.8 858.534 454.268 855.385 454.808 C 853.064 455.204 850.76 455.618 848.457 456.086 C 845.992 456.59 843.526 457.112 841.079 457.669 C 833.143 459.505 825.279 461.646 817.506 464.094 C 808.004 467.099 798.593 470.41 789.308 474.027 C 774.678 479.731 759.616 484.266 744.266 487.595 C 732.372 490.186 720.225 491.5 708.043 491.554 C 701.582 491.59 695.14 491.194 688.734 490.366 C 682.814 489.628 676.947 488.441 671.189 486.839 C 665.683 485.328 660.302 483.42 655.084 481.117 C 649.901 478.849 644.899 476.204 640.094 473.199 C 637.881 471.813 636.297 469.6 635.703 467.045 C 635.109 464.489 635.559 461.79 636.963 459.559 C 638.348 457.345 640.562 455.762 643.117 455.168 C 645.672 454.574 648.372 455.024 650.603 456.428 C 654.58 458.911 658.737 461.106 663.037 462.996 C 667.392 464.903 671.873 466.505 676.462 467.765 C 681.302 469.114 686.251 470.104 691.235 470.734 C 696.778 471.453 702.374 471.795 707.971 471.759 C 718.768 471.723 729.529 470.536 740.074 468.25 C 754.398 465.155 768.452 460.908 782.11 455.6 C 791.809 451.821 801.634 448.348 811.549 445.217 C 819.827 442.608 828.195 440.322 836.652 438.379 C 839.28 437.785 841.907 437.209 844.552 436.687 C 847.053 436.183 849.555 435.716 852.074 435.284 C 855.511 434.708 858.948 434.204 862.421 433.772 C 865.624 433.358 868.845 433.034 872.066 432.8 C 880.164 432.171 888.298 432.117 896.413 432.62 C 903.305 433.034 910.143 434.042 916.874 435.608 C 922.794 436.993 928.57 438.865 934.167 441.204 L 934.167 416.137 L 934.167 416.137 Z  M 805.503 362.845 C 798.096 361.863 791.169 358.474 785.817 353.137 C 780.479 347.785 777.09 340.858 776.108 333.451 L 776.108 333.451 L 776.108 333.451 L 805.503 333.451 L 805.503 362.845 L 805.503 362.845 Z  M 814.501 362.845 C 821.908 361.863 828.834 358.474 834.187 353.137 C 839.524 347.785 842.913 340.858 843.895 333.451 L 814.501 333.451 L 814.501 362.845 L 814.501 362.845 Z  M 805.503 295.058 C 798.096 296.04 791.169 299.429 785.817 304.767 C 780.479 310.119 777.09 317.046 776.108 324.453 L 776.108 324.453 L 805.503 324.453 L 805.503 295.058 L 805.503 295.058 Z  M 814.501 295.058 C 821.908 296.04 828.834 299.429 834.187 304.767 C 839.524 310.119 842.913 317.046 843.895 324.453 L 814.501 324.453 L 814.501 295.058 L 814.501 295.058 Z  M 766.814 328.952 C 766.814 317.507 771.367 306.512 779.464 298.414 C 787.562 290.317 798.557 285.764 810.002 285.764 C 821.447 285.764 832.441 290.317 840.539 298.414 C 848.637 306.512 853.19 317.507 853.19 328.952 L 853.19 328.952 C 853.19 340.397 848.637 351.391 840.539 359.489 C 832.441 367.587 821.447 372.14 810.002 372.14 C 798.557 372.14 787.562 367.587 779.464 359.489 C 771.367 351.391 766.814 340.397 766.814 328.952 L 766.814 328.952 L 766.814 328.952 L 766.814 328.952 Z " fill-rule="evenodd" fill="rgb(255,255,255)"/></g></g></g></svg>